<svg width="24" height="28" viewBox="0 0 24 28" fill="none" xmlns="http://www.w3.org/2000/svg">
<path d="M17.45 26.3081C16.32 26.3081 15.13 25.9958 13.9 25.3945C12.7 24.8047 11.49 23.9952 10.31 23.0123C9.14 22.0178 8.01 20.9076 6.94 19.6934C5.88 18.4561 4.92 17.1493 4.07 15.8079C3.21 14.4202 2.52 13.0325 2.03 11.6911C1.51 10.2571 1.25 8.86944 1.25 7.5627C1.25 6.66071 1.39 5.80497 1.66 5.00704C1.94 4.186 2.39 3.42277 3 2.76362C3.77 1.88475 4.65 1.44531 5.59 1.44531C5.98 1.44531 6.38 1.54939 6.72 1.73441C7.11 1.94257 7.44 2.2548 7.68 2.6711L10 6.45255C10.21 6.78791 10.37 7.1117 10.48 7.4355C10.61 7.78242 10.68 8.12934 10.68 8.4647C10.68 8.90413 10.57 9.33201 10.36 9.73675C10.21 10.049 9.98 10.3843 9.69 10.7197L9.01 11.5407C9.02 11.5754 9.03 11.5986 9.04 11.6217C9.16 11.8645 9.4 12.2808 9.86 12.9053C10.35 13.5529 10.81 14.1427 11.27 14.6862C11.86 15.3569 12.35 15.8888 12.81 16.3283C13.38 16.8833 13.75 17.1609 13.97 17.2881L13.95 17.3459L14.68 16.5133C14.99 16.1548 15.29 15.8888 15.58 15.7154C16.13 15.3222 16.83 15.2528 17.53 15.5882C17.79 15.7154 18.07 15.8888 18.37 16.1317L21.69 18.8608C22.06 19.1499 22.33 19.5199 22.49 19.9594C22.64 20.3988 22.71 20.8036 22.71 21.2083C22.71 21.7634 22.6 22.3185 22.39 22.8388C22.18 23.3592 21.92 23.8102 21.59 24.2265C21.02 24.9551 20.4 25.4754 19.68 25.8108C18.99 26.1346 18.24 26.3081 17.45 26.3081ZM5.59 3.17992C5.04 3.17992 4.53 3.45746 4.04 4.01254C3.58 4.50979 3.26 5.0533 3.06 5.64307C2.85 6.2444 2.75 6.88042 2.75 7.5627C2.75 8.63816 2.97 9.80613 3.41 11.0088C3.86 12.2346 4.49 13.5066 5.29 14.7787C6.09 16.0507 7 17.2881 8 18.4561C9 19.6009 10.08 20.6648 11.19 21.6015C12.27 22.515 13.38 23.2551 14.48 23.7871C16.19 24.6313 17.79 24.8279 19.11 24.1918C19.62 23.949 20.07 23.5789 20.48 23.047C20.71 22.7579 20.89 22.4457 21.04 22.0756C21.16 21.7865 21.22 21.4858 21.22 21.1852C21.22 21.0001 21.19 20.8151 21.11 20.607C21.08 20.5376 21.02 20.4104 20.83 20.26L17.51 17.5309C17.31 17.369 17.13 17.2534 16.96 17.1724C16.74 17.0684 16.65 16.9643 16.31 17.2071C16.11 17.3228 15.93 17.4962 15.73 17.7275L14.97 18.5948C14.58 19.0343 13.98 19.1383 13.52 18.9417L13.25 18.803C12.84 18.5486 12.36 18.1554 11.83 17.635C11.35 17.1609 10.83 16.6058 10.2 15.8888C9.71 15.3106 9.22 14.6977 8.71 14.0155C8.24 13.3794 7.9 12.8359 7.69 12.3849L7.57 12.038C7.51 11.772 7.49 11.6217 7.49 11.4598C7.49 11.0435 7.62 10.6734 7.87 10.3843L8.62 9.48234C8.82 9.25106 8.97 9.03134 9.07 8.83475C9.15 8.68442 9.18 8.55721 9.18 8.44157C9.18 8.34906 9.15 8.21029 9.1 8.07152C9.03 7.8865 8.92 7.67834 8.78 7.45863L6.46 3.66561C6.36 3.50372 6.24 3.38808 6.09 3.30713C5.93 3.22618 5.76 3.17992 5.59 3.17992ZM13.95 17.3575L13.79 18.1438L14.06 17.3343C14.01 17.3228 13.97 17.3343 13.95 17.3575Z" fill="#1E1E1C"/>
</svg>
