<svg width="24" height="24" viewBox="0 0 24 24" fill="none" xmlns="http://www.w3.org/2000/svg">
<path d="M12 22.75C6.07 22.75 1.25 17.93 1.25 12C1.25 6.07 6.07 1.25 12 1.25C17.93 1.25 22.75 6.07 22.75 12C22.75 17.93 17.93 22.75 12 22.75ZM12 2.75C6.9 2.75 2.75 6.9 2.75 12C2.75 17.1 6.9 21.25 12 21.25C17.1 21.25 21.25 17.1 21.25 12C21.25 6.9 17.1 2.75 12 2.75Z" fill="white"/>
<path d="M8.99999 21.75H7.99999C7.58999 21.75 7.24999 21.41 7.24999 21C7.24999 20.59 7.56999 20.26 7.97999 20.25C6.40999 14.89 6.40999 9.11 7.97999 3.75C7.56999 3.74 7.24999 3.41 7.24999 3C7.24999 2.59 7.58999 2.25 7.99999 2.25H8.99999C9.23999 2.25 9.46999 2.37 9.60999 2.56C9.74999 2.76 9.78999 3.01 9.70999 3.24C7.82999 8.89 7.82999 15.11 9.70999 20.77C9.78999 21 9.74999 21.25 9.60999 21.45C9.46999 21.63 9.23999 21.75 8.99999 21.75Z" fill="white"/>
<path d="M15 21.7497C14.92 21.7497 14.84 21.7397 14.76 21.7097C14.37 21.5797 14.15 21.1497 14.29 20.7597C16.17 15.1097 16.17 8.88969 14.29 3.22969C14.16 2.83969 14.37 2.40969 14.76 2.27969C15.16 2.14969 15.58 2.35969 15.71 2.74969C17.7 8.70969 17.7 15.2697 15.71 21.2197C15.61 21.5497 15.31 21.7497 15 21.7497Z" fill="white"/>
<path d="M12 17.1998C9.21 17.1998 6.43 16.8098 3.75 16.0198C3.74 16.4198 3.41 16.7498 3 16.7498C2.59 16.7498 2.25 16.4098 2.25 15.9998V14.9998C2.25 14.7598 2.37 14.5298 2.56 14.3898C2.76 14.2498 3.01 14.2098 3.24 14.2898C8.89 16.1698 15.12 16.1698 20.77 14.2898C21 14.2098 21.25 14.2498 21.45 14.3898C21.65 14.5298 21.76 14.7598 21.76 14.9998V15.9998C21.76 16.4098 21.42 16.7498 21.01 16.7498C20.6 16.7498 20.27 16.4298 20.26 16.0198C17.57 16.8098 14.79 17.1998 12 17.1998Z" fill="white"/>
<path d="M21 9.75035C20.92 9.75035 20.84 9.74035 20.76 9.71035C15.11 7.83035 8.88003 7.83035 3.23003 9.71035C2.83003 9.84035 2.41003 9.63035 2.28003 9.24035C2.16003 8.84035 2.37003 8.42035 2.76003 8.29035C8.72003 6.30035 15.28 6.30035 21.23 8.29035C21.62 8.42035 21.84 8.85035 21.7 9.24035C21.61 9.55035 21.31 9.75035 21 9.75035Z" fill="white"/>
</svg>
