<svg width="60" height="60" viewBox="0 0 60 60" fill="none" xmlns="http://www.w3.org/2000/svg">
<path d="M30 54.125C29.225 54.125 28.475 54.025 27.85 53.8C18.3 50.525 3.125 38.9 3.125 21.725C3.125 12.975 10.2 5.875 18.9 5.875C23.125 5.875 27.075 7.525 30 10.475C32.925 7.525 36.875 5.875 41.1 5.875C49.8 5.875 56.875 13 56.875 21.725C56.875 38.925 41.7 50.525 32.15 53.8C31.525 54.025 30.775 54.125 30 54.125ZM18.9 9.625C12.275 9.625 6.875 15.05 6.875 21.725C6.875 38.8 23.3 48.3 29.075 50.275C29.525 50.425 30.5 50.425 30.95 50.275C36.7 48.3 53.15 38.825 53.15 21.725C53.15 15.05 47.75 9.625 41.125 9.625C37.325 9.625 33.8 11.4 31.525 14.475C30.825 15.425 29.225 15.425 28.525 14.475C26.2 11.375 22.7 9.625 18.9 9.625Z" fill="white"/>
</svg>
