<svg width="16" height="16" viewBox="0 0 16 16" fill="none" xmlns="http://www.w3.org/2000/svg">
<path d="M3.63206 15.3921V5.18437H0.202169V15.3921H3.63242H3.63206ZM1.91783 3.79092C3.11365 3.79092 3.85813 3.00708 3.85813 2.02752C3.83575 1.02563 3.11365 0.263672 1.94057 0.263672C0.766684 0.263672 0 1.02563 0 2.02743C0 3.007 0.744211 3.79083 1.89536 3.79083H1.91756L1.91783 3.79092ZM5.53055 15.3921H8.96017V9.69224C8.96017 9.38757 8.98255 9.0821 9.07316 8.86448C9.32099 8.25469 9.88533 7.62346 10.8331 7.62346C12.0738 7.62346 12.5705 8.55945 12.5705 9.93182V15.3921H16V9.53929C16 6.40405 14.3082 4.94506 12.0516 4.94506C10.2016 4.94506 9.38904 5.96793 8.9376 6.66461H8.96044V5.18472H5.53073C5.57549 6.14233 5.53046 15.3924 5.53046 15.3924L5.53055 15.3921Z" fill="#0C0F1C"/>
</svg>
