<svg width="30" height="30" viewBox="0 0 30 30" fill="none" xmlns="http://www.w3.org/2000/svg">
<path d="M12.2689 15C12.2689 13.4921 13.4917 12.2694 15.0005 12.2694C16.5094 12.2694 17.7328 13.4921 17.7328 15C17.7328 16.5079 16.5094 17.7306 15.0005 17.7306C13.4917 17.7306 12.2689 16.5079 12.2689 15ZM10.7919 15C10.7919 17.323 12.6761 19.206 15.0005 19.206C17.325 19.206 19.2091 17.323 19.2091 15C19.2091 12.6769 17.325 10.7939 15.0005 10.7939C12.6761 10.7939 10.7919 12.6769 10.7919 15ZM18.3922 10.6271C18.3921 10.8215 18.4498 11.0116 18.5578 11.1733C18.6658 11.335 18.8193 11.461 18.999 11.5355C19.1787 11.6099 19.3764 11.6295 19.5672 11.5916C19.7581 11.5538 19.9333 11.4602 20.0709 11.3228C20.2085 11.1854 20.3023 11.0103 20.3403 10.8197C20.3783 10.629 20.3589 10.4314 20.2846 10.2517C20.2102 10.0721 20.0842 9.91851 19.9225 9.81044C19.7608 9.70237 19.5707 9.64464 19.3762 9.64457H19.3758C19.115 9.64469 18.865 9.74823 18.6806 9.93246C18.4962 10.1167 18.3925 10.3665 18.3922 10.6271ZM11.6893 21.6674C10.8902 21.631 10.4559 21.498 10.1673 21.3856C9.78461 21.2367 9.51158 21.0594 9.22452 20.7729C8.93746 20.4864 8.75977 20.2138 8.61145 19.8314C8.49894 19.5431 8.36583 19.1089 8.32951 18.3103C8.28977 17.4468 8.28184 17.1875 8.28184 15C8.28184 12.8126 8.29043 12.5539 8.32951 11.6898C8.3659 10.8912 8.49999 10.4579 8.61145 10.1687C8.76043 9.78624 8.93786 9.51338 9.22452 9.22649C9.51119 8.9396 9.78396 8.76201 10.1673 8.61379C10.4558 8.50134 10.8902 8.36831 11.6893 8.33201C12.5533 8.2923 12.8128 8.28437 15.0005 8.28437C17.1883 8.28437 17.4481 8.29295 18.3128 8.33201C19.1118 8.36838 19.5455 8.50239 19.8348 8.61379C20.2175 8.76201 20.4905 8.93999 20.7776 9.22649C21.0646 9.51298 21.2416 9.78624 21.3906 10.1687C21.5031 10.457 21.6362 10.8912 21.6726 11.6898C21.7123 12.5539 21.7202 12.8126 21.7202 15C21.7202 17.1875 21.7123 17.4461 21.6726 18.3103C21.6362 19.1089 21.5024 19.5429 21.3906 19.8314C21.2416 20.2138 21.0642 20.4867 20.7776 20.7729C20.4909 21.0592 20.2175 21.2367 19.8348 21.3856C19.5463 21.4981 19.1118 21.6311 18.3128 21.6674C17.4488 21.7071 17.1893 21.715 15.0005 21.715C12.8118 21.715 12.553 21.7071 11.6893 21.6674ZM11.6215 6.85838C10.7489 6.89809 10.1527 7.03636 9.63203 7.23885C9.0928 7.44795 8.63631 7.72848 8.18014 8.18365C7.72398 8.63882 7.444 9.09576 7.23477 9.63467C7.03216 10.1554 6.89381 10.7509 6.85408 11.6229C6.81369 12.4963 6.80444 12.7755 6.80444 15C6.80444 17.2244 6.81369 17.5037 6.85408 18.377C6.89381 19.2491 7.03216 19.8446 7.23477 20.3653C7.444 20.9038 7.72405 21.3613 8.18014 21.8163C8.63624 22.2712 9.0928 22.5514 9.63203 22.7611C10.1537 22.9636 10.7489 23.1018 11.6215 23.1415C12.4958 23.1813 12.7747 23.1912 15.0005 23.1912C17.2263 23.1912 17.5057 23.1819 18.3796 23.1415C19.2522 23.1018 19.8481 22.9636 20.3691 22.7611C20.908 22.5514 21.3648 22.2714 21.8209 21.8163C22.2771 21.3611 22.5565 20.9038 22.7663 20.3653C22.9689 19.8446 23.1079 19.249 23.147 18.377C23.1867 17.503 23.196 17.2244 23.196 15C23.196 12.7755 23.1867 12.4963 23.147 11.6229C23.1073 10.7508 22.9689 10.155 22.7663 9.63467C22.5565 9.09608 22.2764 8.63954 21.8209 8.18365C21.3655 7.72776 20.908 7.44795 20.3697 7.23885C19.8481 7.03636 19.2522 6.89744 18.3803 6.85838C17.5064 6.81867 17.227 6.80878 15.0012 6.80878C12.7754 6.80878 12.4958 6.81802 11.6215 6.85838Z" fill="#0C0F1C"/>
<path d="M12.2689 15C12.2689 13.4921 13.4917 12.2694 15.0005 12.2694C16.5094 12.2694 17.7328 13.4921 17.7328 15C17.7328 16.5079 16.5094 17.7306 15.0005 17.7306C13.4917 17.7306 12.2689 16.5079 12.2689 15ZM10.7919 15C10.7919 17.323 12.6761 19.206 15.0005 19.206C17.325 19.206 19.2091 17.323 19.2091 15C19.2091 12.6769 17.325 10.7939 15.0005 10.7939C12.6761 10.7939 10.7919 12.6769 10.7919 15ZM18.3922 10.6271C18.3921 10.8215 18.4498 11.0116 18.5578 11.1733C18.6658 11.335 18.8193 11.461 18.999 11.5355C19.1787 11.6099 19.3764 11.6295 19.5672 11.5916C19.7581 11.5538 19.9333 11.4602 20.0709 11.3228C20.2085 11.1854 20.3023 11.0103 20.3403 10.8197C20.3783 10.629 20.3589 10.4314 20.2846 10.2517C20.2102 10.0721 20.0842 9.91851 19.9225 9.81044C19.7608 9.70237 19.5707 9.64464 19.3762 9.64457H19.3758C19.115 9.64469 18.865 9.74823 18.6806 9.93246C18.4962 10.1167 18.3925 10.3665 18.3922 10.6271ZM11.6893 21.6674C10.8902 21.631 10.4559 21.498 10.1673 21.3856C9.78461 21.2367 9.51158 21.0594 9.22452 20.7729C8.93746 20.4864 8.75977 20.2138 8.61145 19.8314C8.49894 19.5431 8.36583 19.1089 8.32951 18.3103C8.28977 17.4468 8.28184 17.1875 8.28184 15C8.28184 12.8126 8.29043 12.5539 8.32951 11.6898C8.3659 10.8912 8.49999 10.4579 8.61145 10.1687C8.76043 9.78624 8.93786 9.51338 9.22452 9.22649C9.51119 8.9396 9.78396 8.76201 10.1673 8.61379C10.4558 8.50134 10.8902 8.36831 11.6893 8.33201C12.5533 8.2923 12.8128 8.28437 15.0005 8.28437C17.1883 8.28437 17.4481 8.29295 18.3128 8.33201C19.1118 8.36838 19.5455 8.50239 19.8348 8.61379C20.2175 8.76201 20.4905 8.93999 20.7776 9.22649C21.0646 9.51298 21.2416 9.78624 21.3906 10.1687C21.5031 10.457 21.6362 10.8912 21.6726 11.6898C21.7123 12.5539 21.7202 12.8126 21.7202 15C21.7202 17.1875 21.7123 17.4461 21.6726 18.3103C21.6362 19.1089 21.5024 19.5429 21.3906 19.8314C21.2416 20.2138 21.0642 20.4867 20.7776 20.7729C20.4909 21.0592 20.2175 21.2367 19.8348 21.3856C19.5463 21.4981 19.1118 21.6311 18.3128 21.6674C17.4488 21.7071 17.1893 21.715 15.0005 21.715C12.8118 21.715 12.553 21.7071 11.6893 21.6674ZM11.6215 6.85838C10.7489 6.89809 10.1527 7.03636 9.63203 7.23885C9.0928 7.44795 8.63631 7.72848 8.18014 8.18365C7.72398 8.63882 7.444 9.09576 7.23477 9.63467C7.03216 10.1554 6.89381 10.7509 6.85408 11.6229C6.81369 12.4963 6.80444 12.7755 6.80444 15C6.80444 17.2244 6.81369 17.5037 6.85408 18.377C6.89381 19.2491 7.03216 19.8446 7.23477 20.3653C7.444 20.9038 7.72405 21.3613 8.18014 21.8163C8.63624 22.2712 9.0928 22.5514 9.63203 22.7611C10.1537 22.9636 10.7489 23.1018 11.6215 23.1415C12.4958 23.1813 12.7747 23.1912 15.0005 23.1912C17.2263 23.1912 17.5057 23.1819 18.3796 23.1415C19.2522 23.1018 19.8481 22.9636 20.3691 22.7611C20.908 22.5514 21.3648 22.2714 21.8209 21.8163C22.2771 21.3611 22.5565 20.9038 22.7663 20.3653C22.9689 19.8446 23.1079 19.249 23.147 18.377C23.1867 17.503 23.196 17.2244 23.196 15C23.196 12.7755 23.1867 12.4963 23.147 11.6229C23.1073 10.7508 22.9689 10.155 22.7663 9.63467C22.5565 9.09608 22.2764 8.63954 21.8209 8.18365C21.3655 7.72776 20.908 7.44795 20.3697 7.23885C19.8481 7.03636 19.2522 6.89744 18.3803 6.85838C17.5064 6.81867 17.227 6.80878 15.0012 6.80878C12.7754 6.80878 12.4958 6.81802 11.6215 6.85838Z" fill="#0C0F1C"/>
</svg>
