<svg width="110" height="90" viewBox="0 0 110 90" fill="none" xmlns="http://www.w3.org/2000/svg">
<path d="M89.3194 78.2786C88.2388 71.2668 85.0298 64.7533 80.1245 59.6143C75.2191 54.4752 68.8525 50.9573 61.8814 49.5338C61.4845 49.4523 60.8073 49.6007 60.8306 48.879C60.8481 48.2039 60.5387 47.4589 61.394 46.9439C62.6228 46.1549 63.72 45.1789 64.6457 44.0513C68.8489 39.1888 71.0206 33.4415 71.8379 27.1734C72.1824 24.5137 72.4976 21.8831 73.2565 19.2903C74.1122 16.3156 74.3887 13.2051 74.0709 10.1267C73.5572 4.85385 70.288 1.26002 65.0923 0.290998C64.9755 0.267719 64.8617 0.253169 64.7449 0.235709V2.85469C68.7585 3.67822 70.9301 6.11097 71.4556 10.2519C71.8876 13.5984 71.2483 16.8139 70.396 20.0207C70.2179 20.6958 69.9698 20.6347 69.5203 20.3117C68.6125 19.6453 67.7193 18.9498 66.7619 18.3591C63.589 16.4036 60.7255 16.389 57.9263 19.072C56.137 20.7889 53.4428 20.6929 51.5688 19.0458C48.7083 16.5316 46.3148 16.2785 43.0193 18.2281C41.9918 18.8363 41.0519 19.5987 40.0653 20.2797C39.7734 20.4746 39.4319 20.8442 39.2801 20.172C38.5883 17.1194 38.2381 14.0843 39.4056 11.0579C40.0595 9.39343 41.157 8.07521 42.7945 7.38263C48.5419 4.94988 54.4206 2.94781 60.7285 2.54915H60.8569V0C59.9374 0.0261899 59.0209 0.104759 58.1014 0.221159C52.6138 0.919555 47.4123 2.69465 42.3246 4.77237C39.3677 5.97711 37.4967 8.19743 36.6268 11.2442C35.9379 13.6624 36.0109 16.1126 36.2882 18.5861C36.5042 20.5037 37.3303 22.2701 37.4791 24.2111C38.1622 33.232 40.8242 41.348 48.4193 47.1126C49.0819 47.619 48.7112 48.3203 48.7608 48.9343C48.8104 49.5483 48.2179 49.4406 47.8851 49.5163C31.5946 52.822 20.0794 66.6386 19.8225 83.1848C19.7787 86.0191 21.2353 88.3384 23.7339 89.4413C24.8314 89.9272 25.9873 90 27.1607 90H34.8521V87.4188H26.9943C23.8808 87.4188 22.3552 85.8765 22.4174 82.792C22.5969 75.6555 25.1487 68.7805 29.6722 63.2465C34.1956 57.7125 40.4346 53.8329 47.4094 52.2168C48.7024 51.9258 48.72 51.9258 48.8046 53.2644C48.8676 54.621 49.4444 55.9032 50.4188 56.8524C50.6095 57.0107 50.7544 57.2168 50.8385 57.4496C50.9227 57.6823 50.943 57.9332 50.8975 58.1764C50.1678 63.5657 49.4935 68.9637 48.755 74.353C48.6353 75.226 48.755 75.8837 49.3709 76.5326C50.7866 78.0458 52.141 79.6172 53.5333 81.1507C54.4498 82.1634 55.1183 82.1547 56.064 81.1129C57.4593 79.5793 58.8166 78.0109 60.2293 76.4948C60.49 76.2215 60.6795 75.8886 60.7813 75.5254C60.8831 75.1622 60.894 74.7796 60.8131 74.4112C60.0775 69.0219 59.3945 63.6268 58.6765 58.2346C58.6093 57.737 58.6385 57.3616 59.0413 56.9746C59.5921 56.4668 60.0288 55.8485 60.3226 55.1604C60.6164 54.4722 60.7607 53.7298 60.746 52.9821C60.7285 52.0102 61.0933 51.952 61.9136 52.1586C74.7744 55.4818 82.9036 63.5327 86.3013 76.3114C86.8406 78.5024 87.1217 80.7485 87.139 83.0044C87.212 85.8009 85.6124 87.4334 82.8015 87.4334C73.4609 87.4334 64.1203 87.4334 54.7797 87.4334H38.492C38.492 87.477 38.492 87.5178 38.492 87.5614V89.5984C38.492 89.6624 38.4978 89.7265 38.5095 89.7905V89.8167C38.5139 89.8816 38.5139 89.9467 38.5095 90.0116H54.7505C63.9082 90.0116 73.0658 90.0116 82.2235 90.0116C82.879 90.018 83.5342 89.982 84.185 89.904C85.5704 89.729 86.8579 89.0996 87.8451 88.115C88.8322 87.1303 89.4628 85.8464 89.6376 84.4652C89.8799 82.3787 89.6376 80.3156 89.3194 78.2786ZM57.865 75.2522C56.9747 76.2125 56.099 77.1844 55.2379 78.1796C54.8877 78.587 54.6542 78.5841 54.301 78.1796C53.4516 77.1844 52.573 76.2125 51.6739 75.2493C51.5398 75.106 51.443 74.9321 51.3921 74.7429C51.3412 74.5536 51.3378 74.3548 51.382 74.1639C52.0271 69.3478 52.6401 64.526 53.2852 59.71C53.3406 59.2822 53.1859 58.5693 54.0441 58.7351C56.0698 58.7351 56.0874 58.7351 56.3501 60.6935C56.9543 65.1866 57.5176 69.6825 58.1452 74.1726C58.1905 74.3617 58.1886 74.5589 58.1398 74.7471C58.0909 74.9353 57.9966 75.1087 57.865 75.2522ZM58.224 51.2652C58.1919 51.9054 58.297 52.7202 58.1189 53.4972C57.9513 54.2669 57.5258 54.9568 56.9125 55.4534C56.2993 55.95 55.5347 56.2238 54.7446 56.2296C53.953 56.2227 53.1889 55.939 52.5855 55.4279C51.9822 54.9169 51.578 54.2109 51.4433 53.4331C51.204 52.0305 51.385 50.6075 51.3412 49.1962C51.3412 48.7393 51.5367 48.6142 51.9571 48.7451C53.7886 49.2806 55.7358 49.2806 57.5673 48.7451C58.0518 48.6084 58.2415 48.7451 58.2299 49.2544C58.2123 49.8771 58.224 50.494 58.224 51.2652ZM54.479 46.5394C51.8053 46.4637 49.6803 45.1542 47.8384 43.3675C44 39.6427 41.9831 34.9518 40.7863 29.8564C40.3667 28.0165 40.1136 26.1427 40.0303 24.2576C39.9914 24.0127 40.0291 23.7618 40.1382 23.539C40.2474 23.3161 40.4227 23.1322 40.6403 23.0122C41.8838 22.1915 43.031 21.2225 44.2949 20.4339C46.4987 19.0604 47.8706 19.2234 49.8146 20.9519C51.1649 22.1748 52.9218 22.8555 54.7461 22.8625C56.5704 22.8695 58.3326 22.2023 59.6922 20.9897C61.7793 19.1855 63.0782 19.0517 65.3842 20.5299C66.6977 21.3738 67.9412 22.3283 69.2138 23.2362C69.8443 23.6873 69.3131 24.3304 69.5057 24.8018C68.9219 31.2882 67.0917 37.2478 62.7921 42.2355C60.6409 44.7381 58.0518 46.6412 54.479 46.5394Z" fill="white"/>
<path d="M82.9533 24.214C83.7151 24.31 84.2668 24.9415 84.9148 25.378C86.0824 26.1811 87.4572 26.1898 88.5168 25.3343C88.8933 25.0433 88.8379 24.5457 88.8992 24.1325C89.407 20.7511 89.2874 21.0188 92.5303 21.0101C95.8521 21.0101 95.6623 20.8122 96.1673 24.1267C96.2358 24.5094 96.3993 24.869 96.6431 25.1726C96.8868 25.4762 97.2029 25.714 97.5625 25.8645C97.9221 26.015 98.3138 26.0733 98.7019 26.034C99.0899 25.9948 99.4619 25.8593 99.7839 25.6399C102.542 23.6785 102.212 23.6029 104.661 26.056C106.941 28.3287 106.891 28.0726 105.006 30.6567C104.763 30.9799 104.609 31.3605 104.559 31.7611C104.508 32.1617 104.563 32.5684 104.718 32.9415C104.873 33.3145 105.122 33.641 105.442 33.8888C105.762 34.1367 106.14 34.2974 106.541 34.3553C109.621 34.914 109.609 34.5066 109.565 37.8472C109.524 41.0482 110.035 41.0482 106.445 41.5837C104.796 41.8252 103.981 43.8476 104.942 45.1775C106.915 47.91 106.985 47.5666 104.533 50.0284C102.268 52.2953 102.469 52.2342 99.9065 50.3718C98.374 49.2573 96.4329 50.1128 96.1527 52.0101C95.7236 54.9405 95.7236 54.9201 92.7638 54.9405C89.194 54.9405 89.41 55.1209 88.9021 51.6871C88.6802 50.1972 86.5961 49.3591 85.3731 50.2321C82.4717 52.3535 82.8307 52.2458 80.4109 49.8713C78.0757 47.5724 78.2625 47.811 79.9993 45.355C80.2912 44.9563 80.8429 44.5984 80.7057 44.0804C80.515 43.3067 80.1942 42.5707 79.757 41.9038C79.4651 41.4702 78.7558 41.5778 78.2275 41.4964C75.5217 41.0802 75.5217 41.089 75.5217 38.3943C75.5217 37.7425 75.5217 37.0877 75.5217 36.4359C75.5217 35.106 75.7931 34.8092 77.1271 34.5706C77.3781 34.5269 77.635 34.5153 77.886 34.4775C79.7512 34.1865 80.2212 33.7558 80.7057 31.9458C80.8049 31.582 80.621 31.4045 80.4605 31.1775C79.9789 30.4966 79.4856 29.8215 79.001 29.1406C78.5865 28.5586 78.5369 27.9766 79.0361 27.4557C79.9935 26.4576 80.9859 25.4944 81.955 24.5195C82.0915 24.4031 82.2506 24.3159 82.4223 24.2633C82.594 24.2108 82.7748 24.194 82.9533 24.214ZM86.0415 46.7983C86.8384 46.7983 87.3901 47.5142 88.1227 47.6393C90.4579 48.0293 91.5437 49.3853 91.5233 51.7133C91.5233 52.5368 92.1275 52.339 92.6062 52.3651C93.0849 52.3913 93.5636 52.3884 93.5665 51.6813C93.5665 51.3234 93.7271 50.9684 93.7388 50.6104C93.7825 49.202 94.3459 48.2824 95.8608 48.0671C96.261 48.0169 96.6422 47.8678 96.97 47.6335C98.5141 46.4521 99.851 46.8536 101.118 48.0816C101.194 48.1573 101.305 48.201 101.378 48.2766C101.929 48.8586 102.315 48.6054 102.805 48.1253C103.295 47.6452 103.389 47.296 102.91 46.7954C101.538 45.3783 101.383 44.0571 102.268 42.0784C103.152 40.0996 103.999 38.9676 106.182 39.0316C106.944 39.0549 106.994 38.5282 106.988 37.9229C106.982 37.3176 106.891 36.9248 106.182 36.9248C104.139 36.9248 103.141 35.9819 102.303 33.974C101.465 31.9662 101.483 30.5432 102.963 29.0707C103.395 28.64 103.29 28.3316 102.884 27.9067C102.35 27.3509 101.921 27.1094 101.275 27.7438C99.9473 29.0562 98.6863 29.0824 96.8153 28.3578C94.6553 27.5255 93.549 26.4779 93.5549 24.2372C93.5549 23.7862 93.3359 23.6727 92.8923 23.5912C91.751 23.3875 91.3948 23.9666 91.3832 24.9356C91.3627 26.6322 90.706 27.767 88.867 27.9969C88.467 28.0514 88.0885 28.21 87.7695 28.4567C86.5173 29.4519 85.4344 29.1464 84.366 28.1657C84.2055 28.0173 83.9953 27.9242 83.8348 27.7787C83.3181 27.3131 82.9153 27.1647 82.2936 27.7787C81.6719 28.3927 81.774 28.7739 82.2673 29.289C83.5429 30.6276 84.1121 32.0418 82.7606 33.6772C82.6659 33.7897 82.6061 33.9272 82.5884 34.073C82.3782 36.2962 80.8808 36.884 78.9485 36.9277C78.9106 36.9277 78.8755 36.9277 78.8376 36.9277C78.2042 36.9277 78.0495 37.2798 78.0728 37.8443C78.0962 38.4089 77.9765 39.0083 78.8142 38.9879C81.0793 38.9472 82.0046 40.181 82.854 42.1889C83.6334 44.0309 83.5984 45.2852 82.2702 46.6296C82.244 46.6558 82.2294 46.6907 82.2031 46.7169C81.6748 47.2174 81.7332 47.6073 82.2761 48.1282C82.819 48.6491 83.1343 48.7102 83.7356 48.2533C84.439 47.7237 85.1191 47.0864 86.0415 46.7983Z" fill="white"/>
<path d="M7.29734 24.2139C8.02124 24.2139 8.54373 24.6737 8.99908 25.1072C10.1083 26.1694 11.2204 26.3731 12.5689 25.5496C12.9805 25.2993 13.2607 25.0985 13.3249 24.6242C13.4242 23.8676 13.5439 23.1168 13.6694 22.366C13.8124 21.493 14.2765 21.0013 15.2164 21.0129C16.419 21.0284 17.6226 21.0284 18.8271 21.0129C19.7612 21.0129 20.2341 21.4814 20.3829 22.3544C20.485 22.7025 20.54 23.0627 20.5464 23.4253C20.3479 25.2586 21.714 25.6543 22.9954 26.1607C23.1291 26.2127 23.2752 26.2247 23.4157 26.1952C23.5562 26.1657 23.685 26.0961 23.7864 25.9948L25.4736 24.7871C26.6178 23.9694 27.0498 23.9927 28.0247 24.9472C28.7515 25.6601 29.4462 26.4022 30.1993 27.0919C31.0341 27.8514 31.075 28.6167 30.3657 29.4635C30.2048 29.7051 30.0314 29.9383 29.8461 30.1619C28.8478 31.1076 28.7311 32.0941 29.4229 33.3134C29.7586 33.8954 30.03 34.233 30.751 34.3406C34.315 34.8848 34.0669 34.5792 34.0465 38.0188C34.0465 40.9637 34.4668 41.0831 31.0838 41.5661C29.201 41.8338 28.4188 43.7923 29.528 45.3258C31.3611 47.8662 31.4603 47.6072 29.1281 49.9236C26.6995 52.336 27.0294 52.2894 24.2534 50.2815C22.9633 49.3503 20.8937 50.1884 20.6632 51.7365C20.164 55.1005 20.3713 54.9608 16.8685 54.9375C13.8416 54.9229 13.8416 54.9375 13.4125 51.9606C13.3657 51.557 13.2137 51.1726 12.9717 50.8457C12.7297 50.5187 12.4061 50.2606 12.033 50.097C11.66 49.9334 11.2505 49.87 10.8452 49.9131C10.4399 49.9562 10.053 50.1043 9.72298 50.3426C7.0755 52.2341 7.34113 52.3185 5.00889 49.9934C2.57742 47.5694 2.67375 47.8953 4.59441 45.2298C5.60144 43.8359 4.79289 41.7902 3.09115 41.5545C-0.458273 41.0772 0.0408651 41.0307 -1.58325e-08 37.9228C-0.0350273 34.5647 -0.116757 34.9052 2.95688 34.3755C4.01938 34.1922 5.17236 32.8915 5.24241 31.8148C5.25992 31.5238 5.05268 31.355 4.90965 31.1542C4.42511 30.4733 3.92597 29.801 3.45018 29.1172C3.24537 28.8773 3.14135 28.5679 3.15984 28.2534C3.17834 27.939 3.3179 27.6438 3.54943 27.4294C4.49224 26.4808 5.45549 25.5263 6.42166 24.5747C6.65523 24.3453 6.96943 24.2158 7.29734 24.2139ZM8.13508 44.1298C8.14868 44.553 8.0076 44.9666 7.7381 45.2938C7.38264 45.8454 6.99268 46.3741 6.57053 46.8768C6.06847 47.421 6.34577 47.7295 6.75442 48.1136C7.16307 48.4977 7.49875 48.9487 8.08253 48.3464C9.55952 46.8245 11.0015 46.8681 13.0155 47.7062C14.9654 48.5152 15.9345 49.4522 15.9549 51.4659C15.9549 52.1381 16.2205 52.4087 16.9415 52.3913C17.6099 52.3738 18.0799 52.3214 18.0799 51.5037C18.0799 51.1458 18.2142 50.7908 18.2346 50.4299C18.3076 49.1583 18.8184 48.3144 20.202 48.1019C20.7117 48.0363 21.1977 47.8475 21.6176 47.552C23.0217 46.4782 24.2447 46.8274 25.3889 47.9244C25.494 48.0234 25.6341 48.0874 25.7392 48.1863C26.2675 48.681 26.6586 48.7305 27.2745 48.1543C27.8904 47.5781 27.7416 47.1271 27.2745 46.644C25.9727 45.2967 25.8968 44.0512 26.6908 42.2034C27.5664 40.1955 28.4421 38.9384 30.7335 39.0024C31.4399 39.0228 31.4924 38.5252 31.4807 37.9636C31.4691 37.4019 31.4807 36.9072 30.7247 36.9218C28.5268 36.9713 27.5694 35.8567 26.7258 33.8197C25.9318 31.8991 25.9493 30.5926 27.3388 29.1987C27.365 29.1754 27.3767 29.1347 27.403 29.1114C27.9663 28.5992 27.6949 28.2384 27.2541 27.7903C26.8134 27.3421 26.4456 27.0802 25.9085 27.6215C24.449 29.0765 23.0508 29.0968 21.0601 28.2471C19.1716 27.444 18.0974 26.5768 18.0974 24.5252C18.0974 23.8036 17.7705 23.5708 17.0232 23.5708C16.276 23.5708 15.9724 23.7978 15.9549 24.5282C15.9082 26.408 15.1026 27.3887 13.1732 28.1715C11.0949 29.0154 9.59163 29.1347 8.03291 27.5575C7.6301 27.1501 7.32653 27.3159 6.92664 27.6506C6.27279 28.1976 6.12685 28.672 6.77485 29.318C7.10761 29.6468 7.32361 30.0891 7.62426 30.45C8.20805 31.1513 8.30145 31.8468 7.77897 32.6354C7.25875 33.4281 6.89057 34.3102 6.69312 35.2369C6.50047 36.1099 5.96922 36.5289 5.12273 36.6512C4.65882 36.748 4.19019 36.8208 3.71872 36.8694C2.95396 36.8985 2.55115 37.0877 2.55115 38.0072C2.55115 38.9268 3.0824 38.9704 3.70413 39.0664C4.17116 39.1392 4.63527 39.2439 5.10522 39.2876C5.49099 39.293 5.86206 39.436 6.15121 39.6906C6.44036 39.9452 6.62846 40.2947 6.68145 40.6757C6.92047 41.6275 7.3002 42.5386 7.80815 43.379C7.93399 43.6217 8.04321 43.8725 8.13508 44.1298Z" fill="white"/>
<path d="M70.6062 65.6315C71.2629 65.6315 71.9168 65.6111 72.5735 65.6315C73.3383 65.6606 73.8083 66.068 73.8345 66.8421C73.8567 67.0058 73.8428 67.1723 73.7937 67.3301C73.7447 67.4879 73.6616 67.6331 73.5505 67.7556C73.4393 67.8781 73.3026 67.9749 73.15 68.0392C72.9974 68.1036 72.8326 68.134 72.667 68.1283C71.3213 68.1748 69.9728 68.169 68.6271 68.1283C68.4608 68.1381 68.2943 68.1117 68.1393 68.0508C67.9842 67.99 67.8443 67.8962 67.7293 67.776C67.6143 67.6558 67.5269 67.5121 67.4733 67.3548C67.4197 67.1976 67.401 67.0305 67.4187 66.8653C67.4187 66.1058 67.8711 65.6577 68.6534 65.6257C69.2956 65.6141 69.9523 65.6344 70.6062 65.6315Z" fill="white"/>
<path d="M55.1299 40.757C53.5222 40.7559 51.9734 40.1537 50.7895 39.0692C50.1736 38.5105 49.9342 37.847 50.5209 37.1632C51.1077 36.4793 51.7586 36.5812 52.4504 37.0933C54.3477 38.5134 55.8743 38.5076 57.8008 37.0933C58.4926 36.5783 59.161 36.5114 59.7244 37.1894C60.2877 37.8674 60.0513 38.5396 59.4325 39.0954C58.2518 40.1575 56.7202 40.749 55.1299 40.757Z" fill="white"/>
<path d="M50.1736 28.8264C50.1532 29.8827 49.6862 30.453 48.8484 30.4385C48.0107 30.4239 47.5758 29.8303 47.5641 28.6721C47.5641 27.7613 47.856 27.0833 48.8397 26.9931C49.6978 26.9145 50.2057 27.6449 50.1736 28.8264Z" fill="white"/>
<path d="M60.06 28.5701C60.0921 27.5661 60.6438 26.9317 61.4378 26.9812C62.2872 27.0336 62.6929 27.6971 62.6666 28.928C62.6462 29.801 62.3105 30.4063 61.3502 30.4295C60.4628 30.4528 60.0192 29.7864 60.06 28.5701Z" fill="white"/>
<path d="M99.273 38.0221C99.2637 39.3526 98.8583 40.6503 98.1083 41.7509C97.3583 42.8514 96.2975 43.7052 95.0602 44.2041C93.823 44.7029 92.465 44.8243 91.1585 44.5529C89.852 44.2815 88.6557 43.6295 87.7212 42.6795C86.7868 41.7296 86.1563 40.5244 85.9096 39.2168C85.663 37.9093 85.8113 36.5581 86.3357 35.3346C86.8602 34.1112 87.7372 33.0705 88.8555 32.3444C89.9739 31.6184 91.2833 31.2397 92.6178 31.2564C94.397 31.2839 96.0936 32.0097 97.3395 33.2763C98.5854 34.5429 99.2801 36.2481 99.273 38.0221ZM92.504 33.8434C91.4011 33.8472 90.3448 34.2873 89.5671 35.067C88.7894 35.8467 88.3539 36.9022 88.3562 38.0017C88.3916 39.0864 88.8506 40.1144 89.6354 40.8665C90.4202 41.6186 91.4687 42.0353 92.5573 42.0277C93.6458 42.0201 94.6884 41.5888 95.4625 40.8259C96.2367 40.0629 96.6813 39.0286 96.7014 37.9435C96.6988 37.3987 96.5878 36.8598 96.3749 36.358C96.1619 35.8562 95.8513 35.4015 95.461 35.0202C95.0706 34.6389 94.6083 34.3386 94.1007 34.1365C93.5931 33.9345 93.0504 33.8349 92.504 33.8434Z" fill="white"/>
<path d="M10.2892 37.9372C10.2991 36.6093 10.7033 35.3141 11.451 34.2151C12.1987 33.1161 13.2563 32.2627 14.4902 31.7625C15.7241 31.2623 17.079 31.1378 18.3838 31.4047C19.6886 31.6717 20.8848 32.3181 21.8214 33.2624C22.7579 34.2066 23.3929 35.4063 23.6459 36.7101C23.899 38.0138 23.7589 39.3631 23.2434 40.5875C22.7278 41.8119 21.8599 42.8565 20.7492 43.5895C19.6385 44.3225 18.3348 44.711 17.0028 44.7058C16.1147 44.7059 15.2355 44.5303 14.416 44.1892C13.5965 43.8482 12.853 43.3484 12.2286 42.7188C11.6042 42.0893 11.1112 41.3425 10.7783 40.5217C10.4454 39.701 10.2792 38.8225 10.2892 37.9372ZM17.0232 33.8429C16.4769 33.839 15.9352 33.9433 15.4296 34.1496C14.924 34.3558 14.4644 34.6601 14.0776 35.0447C13.6907 35.4293 13.3842 35.8866 13.1759 36.3901C12.9675 36.8936 12.8614 37.4333 12.8637 37.978C12.8591 38.8019 13.1001 39.6086 13.5562 40.2957C14.0122 40.9829 14.6627 41.5195 15.4251 41.8375C16.1876 42.1554 17.0276 42.2404 17.8386 42.0817C18.6495 41.9229 19.3949 41.5275 19.9802 40.9458C20.5654 40.364 20.964 39.622 21.1256 38.8139C21.2871 38.0059 21.2042 37.1682 20.8874 36.4072C20.5706 35.6462 20.0342 34.9962 19.3462 34.5397C18.6582 34.0831 17.8497 33.8406 17.0232 33.8429Z" fill="white"/>
<path d="M60.9386 2.55497C61.5077 2.55497 61.969 1.98302 61.969 1.27748C61.969 0.571949 61.5077 0 60.9386 0C60.3696 0 59.9083 0.571949 59.9083 1.27748C59.9083 1.98302 60.3696 2.55497 60.9386 2.55497Z" fill="white"/>
<path d="M65.7607 1.59273C65.7909 0.871751 65.3545 0.268103 64.7859 0.244445C64.2173 0.220787 63.7319 0.786078 63.7017 1.50706C63.6716 2.22803 64.108 2.83168 64.6766 2.85534C65.2452 2.87899 65.7305 2.31371 65.7607 1.59273Z" fill="white"/>
<path d="M38.6847 90C39.2908 90 39.7822 89.4203 39.7822 88.7051C39.7822 87.9899 39.2908 87.4102 38.6847 87.4102C38.0785 87.4102 37.5872 87.9899 37.5872 88.7051C37.5872 89.4203 38.0785 90 38.6847 90Z" fill="white"/>
<path d="M34.8725 90.0001C35.4787 90.0001 35.9701 89.4216 35.9701 88.708C35.9701 87.9945 35.4787 87.416 34.8725 87.416C34.2664 87.416 33.775 87.9945 33.775 88.708C33.775 89.4216 34.2664 90.0001 34.8725 90.0001Z" fill="white"/>
</svg>
