<svg width="76" height="90" viewBox="0 0 76 90" fill="none" xmlns="http://www.w3.org/2000/svg">
<path d="M73.8912 43.1655C73.4944 42.6806 73.2234 42.1054 73.1022 41.4907C72.981 40.876 73.0133 40.2409 73.1963 39.6417C73.5063 38.4839 73.4255 37.256 72.9665 36.1488C72.5075 35.0415 71.696 34.1166 70.6577 33.5176C70.1034 33.2271 69.6301 32.803 69.2808 32.2838C68.9314 31.7646 68.7168 31.1665 68.6565 30.5435C68.2735 27.9432 66.4329 26.2044 63.8202 25.8184C63.2025 25.7257 62.9709 25.5096 62.974 24.8332C63.0049 18.2211 63.0049 11.5936 63.0049 4.9722C63.0207 4.50459 62.9865 4.03663 62.9029 3.57628C62.4706 1.61828 61.1333 0.555898 59.2989 0H47.7084V2.99567H58.2087C59.3545 2.99567 59.9906 3.53922 59.9937 4.58616C60.0102 10.4766 60.0102 16.365 59.9937 22.2514C59.9733 22.3383 59.9422 22.4223 59.9011 22.5015C59.1204 21.8584 58.1899 21.423 57.1959 21.2356C56.2019 21.0483 55.1767 21.1151 54.2155 21.4299C53.7907 21.5465 53.3439 21.5583 52.9135 21.4642C52.4832 21.37 52.0821 21.1728 51.7448 20.8894C49.1877 18.9901 46.822 18.9994 44.2618 20.8894C43.8889 21.1744 43.4543 21.3678 42.993 21.4541C42.5317 21.5405 42.0566 21.5174 41.6059 21.3866C38.6009 20.6424 36.3279 21.5874 34.759 24.2464C34.5383 24.6439 34.228 24.9846 33.8528 25.2414C33.4776 25.4981 33.0477 25.664 32.5972 25.7257C29.2587 26.3033 27.8196 27.7579 27.2575 31.0655C27.1948 31.5156 27.0286 31.9451 26.7719 32.3202C26.5152 32.6953 26.1751 33.0058 25.7782 33.2273C23.1006 34.7992 22.1463 37.0537 22.8968 40.0617C23.0313 40.5411 23.0479 41.0459 22.9452 41.5331C22.8425 42.0203 22.6235 42.4755 22.3069 42.8598C20.5188 45.2007 20.525 47.7517 22.3069 50.1297C22.6185 50.5178 22.8327 50.9749 22.9315 51.4628C23.0304 51.9506 23.0111 52.455 22.8752 52.9339C22.1371 55.8956 23.0944 58.184 25.7072 59.7128C26.1445 59.9519 26.515 60.2968 26.7847 60.716C27.0545 61.1352 27.2149 61.6152 27.2513 62.1124C27.3254 63.0055 27.6176 63.8668 28.1022 64.6206C28.5868 65.3745 29.2491 65.9978 30.0308 66.436C30.4879 66.7047 30.5373 66.961 30.4045 67.415C29.3421 71.2291 28.2303 75.0216 27.1587 78.8202C27.0135 79.3421 26.7819 79.4996 26.2538 79.4996C19.1043 79.4811 11.9579 79.4996 4.80847 79.4842C3.51755 79.4842 3.02033 78.9746 3.02033 77.659C3.02033 58.5587 3.02033 39.4585 3.02033 20.3582C3.02033 19.6603 3.21798 19.4842 3.90359 19.4904C7.47678 19.5244 11.05 19.5089 14.6263 19.4904C17.6405 19.4904 19.512 17.6374 19.5274 14.6232C19.5274 11.0222 19.546 7.41816 19.5274 3.81408C19.5274 3.17171 19.688 2.96479 20.3613 2.96479C27.7732 2.97714 35.1852 2.97714 42.5972 2.96479V0H18.8727C17.3862 0.43946 16.0411 1.26161 14.9721 2.38419C10.7164 6.70578 6.42984 10.9955 2.11236 15.2532C1.42049 15.9065 0.874812 16.6989 0.511249 17.5783C0.147687 18.4576 -0.0255178 19.404 0.00303456 20.3551C0.0462711 25.6053 0.0184762 30.8554 0.0184762 36.0871C0.0184762 49.9413 0.0184762 63.7966 0.0184762 77.6528C0.0184762 80.6578 1.83132 82.4675 4.82082 82.4861C6.10865 82.4861 7.39957 82.4861 8.6874 82.4861C14.2464 82.4861 19.8126 82.4861 25.386 82.4861C25.7442 82.4861 26.1426 82.3131 26.2878 82.9771C26.8035 85.3397 28.7584 86.3743 31.0253 85.525C32.835 84.8548 34.6448 84.1815 36.4329 83.4589C37.0506 83.2056 37.4212 83.2736 37.8319 83.8387C39.0147 85.4756 40.2532 87.0722 41.4947 88.6658C41.8459 89.1605 42.3318 89.544 42.8946 89.7706C43.4574 89.9972 44.0734 90.0576 44.6695 89.9444C45.3 89.8597 45.8915 89.5906 46.3695 89.1707C46.8476 88.7509 47.1909 88.1992 47.3563 87.5849C47.554 86.9518 47.7362 86.3156 47.9524 85.596C48.3353 86.1735 48.4033 86.7665 48.57 87.3162C48.9684 88.7523 49.8579 89.688 51.3248 89.9382C52.7269 90.1791 53.8325 89.6016 54.6787 88.4774C55.8585 86.9116 57.066 85.3644 58.2272 83.7832C58.5824 83.3045 58.9066 83.1809 59.4811 83.4126C61.2414 84.1229 63.0357 84.756 64.8023 85.4539C66.1951 86.0068 67.5107 85.9944 68.6596 84.9598C69.8084 83.9252 69.9659 82.5756 69.5336 81.0963C68.2087 76.5781 66.9332 72.0475 65.6114 67.5293C65.4601 67.0043 65.4755 66.7232 66.0067 66.4144C66.7548 65.9998 67.3914 65.4102 67.862 64.6959C68.3326 63.9817 68.6232 63.1641 68.709 62.3131C68.7523 61.7295 68.9456 61.1669 69.2702 60.6799C69.5949 60.1929 70.0398 59.7981 70.562 59.5336C71.6304 58.9384 72.4697 58.0037 72.9468 56.8777C73.424 55.7516 73.5118 54.4985 73.1963 53.3168C73.0159 52.7324 72.9829 52.1123 73.1004 51.512C73.2179 50.9117 73.4821 50.3498 73.8696 49.8764C74.6122 48.9166 75.0169 47.7383 75.0209 46.5246C75.0248 45.311 74.6276 44.1301 73.8912 43.1655ZM16.3712 5.34898C16.5842 5.57134 16.4947 5.84929 16.4947 6.09944C16.4947 8.87893 16.4947 11.6584 16.4947 14.4379C16.4947 16.0377 16.0067 16.5071 14.3792 16.5071H5.33348C5.68555 15.8894 15.4447 6.06547 16.3712 5.34898ZM48.1191 74.1476C46.9363 78.1871 45.7874 82.239 44.617 86.2847C44.5429 86.5472 44.5645 86.9271 44.1815 86.9672C43.8727 87.0043 43.7553 86.6924 43.6009 86.4916C42.3934 84.9104 41.1828 83.3292 39.9876 81.7356C39.6615 81.2729 39.2296 80.8947 38.7279 80.6325C38.2262 80.3704 37.6691 80.2319 37.1031 80.2285C36.5582 80.2683 36.0232 80.3955 35.5188 80.6053C33.7172 81.2971 31.9137 81.9837 30.108 82.6652C29.864 82.7578 29.6108 82.9215 29.3668 82.7177C29.1228 82.5139 29.2865 82.2359 29.3668 81.9888C30.6824 77.4058 32.0043 72.8258 33.3013 68.2396C33.499 67.5447 33.7769 67.5169 34.2031 68.0111C34.4489 68.3002 34.669 68.6102 34.861 68.9376C36.2507 71.2723 38.709 72.3625 41.3125 71.6769C42.5478 71.3465 43.5886 71.5071 44.583 72.3347C45.4448 73.0584 46.5306 73.4611 47.6559 73.4743C48.2118 73.4836 48.2674 73.6411 48.1191 74.1476ZM65.6237 78.4095C65.9388 79.5069 66.2476 80.6032 66.5502 81.6985C66.6398 82.0259 66.9054 82.4058 66.6213 82.6899C66.2847 83.0234 65.9048 82.6683 65.5743 82.5447C63.848 81.9085 62.1339 81.2322 60.4107 80.5836C58.5144 79.8672 57.1679 80.2501 55.9295 81.8591C54.7528 83.4033 53.5916 84.9475 52.415 86.4669C52.2482 86.6831 52.1339 87.0475 51.7695 86.9549C51.4607 86.8838 51.4607 86.5626 51.3866 86.3125C50.8276 84.3761 50.2779 82.4336 49.7065 80.5003C49.5965 80.1064 49.6095 79.6883 49.7436 79.302C50.3613 77.1988 50.9573 75.0895 51.5595 72.9802C51.8684 71.8622 52.3316 71.5071 53.675 71.4885C53.8294 71.5194 54.1753 71.5719 54.512 71.6553C57.242 72.3224 59.6787 71.3249 61.1488 68.9345C61.3247 68.6308 61.5317 68.3462 61.7664 68.0852C62.3192 67.4984 62.4767 67.5386 62.6929 68.3014C63.6771 71.6697 64.654 75.0391 65.6237 78.4095ZM71.1364 48.5577C70.613 49.2485 70.2541 50.0495 70.0871 50.9C69.9202 51.7504 69.9495 52.6277 70.1729 53.4651C70.6361 55.3829 70.2686 56.2446 68.5824 57.2668C67.817 57.7044 67.166 58.3171 66.6829 59.0546C66.1998 59.7922 65.8982 60.6336 65.8029 61.5102C65.5743 63.2056 64.8239 64.0395 63.1346 64.2896C62.1865 64.3989 61.2788 64.7353 60.4884 65.2703C59.6981 65.8052 59.0485 66.5229 58.5947 67.3625C57.835 68.6565 56.7757 69.1136 55.3242 68.7461C54.3656 68.4672 53.3535 68.4257 52.3754 68.6254C51.3972 68.825 50.4823 69.2597 49.7096 69.8919C48.5608 70.7844 47.4026 70.7628 46.2414 69.8579C45.4806 69.2334 44.5779 68.8056 43.6128 68.6122C42.6477 68.4189 41.6498 68.4659 40.7071 68.7492C39.2649 69.1383 38.1747 68.6998 37.4335 67.4027C36.9801 66.5465 36.3239 65.8143 35.5223 65.27C34.7207 64.7258 33.7981 64.386 32.835 64.2804C31.2229 64.0642 30.4941 63.3076 30.2408 61.6584C30.1252 60.696 29.7783 59.7758 29.2298 58.9766C28.6812 58.1774 27.9473 57.523 27.0907 57.0691C25.8554 56.365 25.3674 55.2687 25.7535 53.8635C26.0508 52.8938 26.0997 51.8651 25.8957 50.8716C25.6917 49.8782 25.2414 48.9519 24.5861 48.1779C24.1808 47.7199 23.957 47.1295 23.957 46.5179C23.957 45.9063 24.1808 45.3159 24.5861 44.8579C25.9203 43.1408 26.3341 41.2909 25.7597 39.1723C25.3644 37.7177 25.8461 36.6646 27.1618 35.9172C27.9903 35.474 28.701 34.8391 29.2344 34.0655C29.7679 33.2919 30.1087 32.4021 30.2285 31.47C30.5126 29.6664 31.1982 28.9994 33.008 28.7183C33.9111 28.6052 34.7748 28.2809 35.5292 27.7717C36.2836 27.2625 36.9074 26.5828 37.3501 25.7875C38.2149 24.3267 39.2495 23.8944 40.9048 24.3144C41.795 24.5636 42.7315 24.5989 43.638 24.4175C44.5444 24.2361 45.3952 23.8431 46.121 23.2705C47.5138 22.2267 48.5453 22.2328 49.9505 23.2891C50.6642 23.8545 51.5017 24.2428 52.3945 24.4221C53.2872 24.6014 54.2097 24.5666 55.0864 24.3206C56.8436 23.8727 57.7948 24.2866 58.7491 25.8647C59.1814 26.6326 59.7877 27.2885 60.5192 27.7797C61.2508 28.271 62.0873 28.584 62.9616 28.6936C64.8486 28.9716 65.562 29.7189 65.8276 31.5627C65.943 32.4694 66.2741 33.3352 66.7932 34.0875C67.3123 34.8398 68.0042 35.4566 68.8109 35.8863C69.898 36.504 70.3798 37.2977 70.3921 38.3817C70.3804 38.8026 70.3044 39.2192 70.1667 39.617C69.9573 40.4428 69.9364 41.3051 70.1053 42.1401C70.2742 42.9752 70.6287 43.7615 71.1426 44.441C72.3038 46.0407 72.31 46.9425 71.1364 48.5577Z" fill="white"/>
<path d="M48.1037 27.0171C37.5509 26.8843 28.604 35.5872 28.5237 46.069C28.4404 56.665 36.1766 65.0745 46.4546 65.9053V62.9035C42.2118 62.5135 38.285 60.4952 35.4985 57.2721C32.7119 54.049 31.2823 49.8717 31.5097 45.6171C31.7371 41.3625 33.6038 37.3614 36.7179 34.4537C39.8321 31.5459 43.9516 29.9576 48.2118 30.0221C57.205 30.0653 64.5521 37.536 64.512 46.5971C64.4766 50.3798 63.147 54.0363 60.7443 56.9581C58.3417 59.88 55.0109 61.891 51.3063 62.6564V65.2753C51.3771 65.3226 51.4443 65.3752 51.5071 65.4328L51.6244 65.4699C51.7413 65.4902 51.8553 65.5245 51.9641 65.5718C56.3149 64.6658 60.2266 62.3033 63.0537 58.8744C65.8807 55.4455 67.454 51.155 67.5138 46.7114C67.6528 35.9547 58.9901 27.153 48.1037 27.0171Z" fill="white"/>
<path d="M43.8264 55.5068C43.3848 55.4704 42.9718 55.2738 42.6652 54.954C41.6337 53.9163 40.5836 52.8941 39.5768 51.8441C38.9036 51.1492 38.8789 50.2536 39.4657 49.6483C40.0524 49.043 40.9697 49.0491 41.7201 49.7594C42.2225 50.2067 42.6959 50.6853 43.1377 51.1924C43.6009 51.7607 43.8356 51.6001 44.2248 51.0936C47.4366 46.9213 50.6794 42.7737 53.9128 38.6168C54.8393 37.4185 55.6485 37.1653 56.4607 37.8169C57.2729 38.4685 57.205 39.2715 56.3125 40.4204C52.6312 45.1558 48.9509 49.8912 45.2717 54.6266C44.8857 55.1084 44.4749 55.479 43.8264 55.5068Z" fill="white"/>
<path d="M42.628 2.99536C43.2693 2.99536 43.7892 2.32614 43.7892 1.50061C43.7892 0.675081 43.2693 0.00585938 42.628 0.00585938C41.9867 0.00585938 41.4668 0.675081 41.4668 1.50061C41.4668 2.32614 41.9867 2.99536 42.628 2.99536Z" fill="white"/>
<path d="M47.7022 2.99536C48.3435 2.99536 48.8634 2.32614 48.8634 1.50061C48.8634 0.675081 48.3435 0.00585938 47.7022 0.00585938C47.0609 0.00585938 46.541 0.675081 46.541 1.50061C46.541 2.32614 47.0609 2.99536 47.7022 2.99536Z" fill="white"/>
<path d="M46.5286 65.9208C47.17 65.9208 47.6899 65.2446 47.6899 64.4106C47.6899 63.5765 47.17 62.9004 46.5286 62.9004C45.8873 62.9004 45.3674 63.5765 45.3674 64.4106C45.3674 65.2446 45.8873 65.9208 46.5286 65.9208Z" fill="white"/>
<path d="M52.1578 65.5275C52.7709 65.3395 53.0705 64.5433 52.827 63.7491C52.5834 62.955 51.889 62.4637 51.2758 62.6517C50.6627 62.8398 50.3631 63.636 50.6066 64.4301C50.8502 65.2242 51.5447 65.7156 52.1578 65.5275Z" fill="white"/>
</svg>
