<svg width="90" height="90" viewBox="0 0 90 90" fill="none" xmlns="http://www.w3.org/2000/svg">
<path d="M89.9865 75.579C89.9 76.0049 89.8039 76.4309 89.7335 76.86C89.5381 78.0289 88.9265 78.8776 87.7832 79.2363C86.64 79.5949 85.6632 79.2363 84.8274 78.3972C82.7202 76.2771 80.5874 74.1859 78.5027 72.0466C78.3382 71.8301 78.1035 71.6775 77.8388 71.615C77.5742 71.5525 77.296 71.5839 77.052 71.704C75.9888 72.1139 74.8968 72.4502 73.808 72.7896C73.5825 72.8387 73.3755 72.9504 73.2107 73.1118C73.0458 73.2733 72.9299 73.4779 72.8761 73.7023C72.5559 74.852 72.146 75.9857 71.7328 77.1098C71.6329 77.3149 71.6067 77.5483 71.6586 77.7705C71.7105 77.9928 71.8374 78.1903 72.0179 78.3299C74.1346 80.3988 76.2034 82.4932 78.3106 84.5908C79.2072 85.4779 79.7196 86.4611 79.2905 87.7389C78.8806 88.9622 77.9583 89.4779 76.7286 89.6924C66.8941 91.4122 57.7705 83.3707 58.3084 73.4045C58.3369 73.1059 58.2937 72.8048 58.1823 72.5262C58.0709 72.2477 57.8946 71.9998 57.668 71.8033C54.3951 68.5559 51.134 65.283 47.8847 61.9844C47.2954 61.3855 46.9944 61.2894 46.3379 61.9524C37.9573 70.3877 29.5254 78.7815 21.1352 87.2105C19.5916 88.7637 17.9328 89.5643 15.7904 88.6932C15.4701 88.5619 15.3004 88.7605 15.0826 88.8886C12.0756 90.6724 8.81237 90.2945 6.31451 87.8478C4.89265 86.4536 3.48467 85.0456 2.09056 83.6237C-0.304825 81.1642 -0.673099 77.8592 1.12984 74.9257C1.22785 74.7878 1.289 74.6272 1.30749 74.459C1.32599 74.2909 1.30121 74.1208 1.23552 73.9649C0.927709 73.2122 0.854739 72.3839 1.0262 71.5889C1.19765 70.7938 1.60552 70.0693 2.19624 69.5103C4.17852 67.4767 6.20242 65.4783 8.21993 63.48C8.91164 62.7946 9.661 62.7498 10.231 63.307C10.8011 63.8643 10.7466 64.6361 10.0901 65.3246C9.50408 65.9363 8.87962 66.5191 8.29678 67.134C7.57304 67.893 7.52821 68.8345 8.15588 69.4814C8.78355 70.1283 9.78269 70.1219 10.5641 69.3501C16.0786 63.8482 21.5878 58.3389 27.0916 52.822C27.9018 52.0086 27.9562 51.1023 27.2773 50.4138C26.5984 49.7252 25.6761 49.7733 24.8083 50.6155C21.3625 54.0486 17.9232 57.4859 14.4902 60.9276C14.2747 61.1649 14.0354 61.3795 13.7761 61.5681C13.5263 61.7574 13.2129 61.8424 12.9018 61.8054C12.5906 61.7684 12.3059 61.6121 12.1076 61.3695C11.8986 61.1614 11.7718 60.8847 11.7506 60.5904C11.7294 60.2962 11.8153 60.0042 11.9923 59.7683C12.1818 59.5107 12.3964 59.2726 12.6328 59.0573C17.8079 53.8757 22.9904 48.6983 28.1804 43.5252C28.6415 43.064 28.7344 42.811 28.2124 42.2986C24.8115 38.9488 21.434 35.5744 18.0801 32.1755C17.915 31.9957 17.7085 31.8589 17.4786 31.7769C17.2487 31.6949 17.0023 31.6701 16.7607 31.7048C7.61788 32.3452 -0.464944 24.339 0.11789 15.1766C0.162724 14.4753 0.255593 13.7708 0.348462 13.0822C0.387343 12.5357 0.592167 12.0141 0.935537 11.5872C1.27891 11.1602 1.74445 10.8483 2.26989 10.6931C3.42596 10.3056 4.39628 10.6675 5.2257 11.497C7.36169 13.6266 9.50729 15.7499 11.6305 17.902C11.7842 18.1069 12.0051 18.2512 12.2544 18.3098C12.5038 18.3683 12.7658 18.3373 12.9947 18.2222C14.0867 17.8059 15.1979 17.4376 16.3188 17.1014C16.5307 17.0583 16.7263 16.9565 16.8832 16.8076C17.0401 16.6586 17.1519 16.4686 17.2058 16.2591C17.5581 15.0838 17.936 13.9117 18.3619 12.762C18.4561 12.5684 18.4811 12.3483 18.4327 12.1385C18.3843 11.9288 18.2655 11.7419 18.0961 11.6091C15.9857 9.55306 13.9394 7.45862 11.8482 5.41222C10.8875 4.4835 10.3303 3.44909 10.7882 2.11685C11.2462 0.784613 12.3446 0.32025 13.6576 0.16653C13.9116 0.126309 14.1629 0.0706969 14.4101 0L17.5741 0C17.734 0.0647468 17.8989 0.116162 18.0673 0.15372C22.0168 0.676267 25.6236 2.67071 28.166 5.73811C30.7084 8.80552 31.9991 12.7197 31.7799 16.6978C31.7562 16.94 31.7897 17.1844 31.8775 17.4113C31.9654 17.6382 32.1053 17.8414 32.2859 18.0045C37.3713 23.0687 42.4428 28.1446 47.5004 33.2323C48.0352 33.7736 48.2882 33.7095 48.7814 33.2099C54.3941 27.5564 60.0239 21.919 65.6707 16.2975C65.868 16.0783 66.0822 15.8749 66.3112 15.689C66.9101 15.2503 67.5313 15.2503 68.0597 15.7787C68.291 15.9903 68.4325 16.2825 68.4551 16.5952C68.4778 16.9078 68.3798 17.2173 68.1814 17.46C67.9907 17.7156 67.7763 17.9526 67.5409 18.1678C60.3953 25.3136 53.2433 32.4563 46.0849 39.5957C45.611 40.0665 45.5469 40.3291 46.0849 40.8095C47.1609 41.8022 48.2049 42.8334 49.1881 43.9159C49.7036 44.4827 49.9694 44.3867 50.469 43.8903C61.0155 33.29 71.5951 22.71 82.2079 12.1503C84.0172 10.3569 85.4871 8.47702 86.166 5.99828C86.467 4.89022 86.9602 3.8366 87.447 2.54599C85.2693 3.37543 83.3191 4.14724 81.3624 4.85499C80.8148 5.0508 80.3188 5.36836 79.9117 5.78371C77.3114 8.40656 74.6919 11.0038 72.0883 13.6234C71.5471 14.1679 70.9707 14.4977 70.2213 14.0782C69.4047 13.6234 69.3599 12.6339 70.1349 11.8589C72.8185 9.15595 75.5245 6.47546 78.2017 3.76934C78.777 3.18724 79.4735 2.73895 80.2416 2.45632C82.3296 1.64288 84.4752 0.976762 86.4959 0H87.9017C88.3765 0.188 88.8071 0.472704 89.166 0.836025C89.5249 1.19935 89.8043 1.63334 89.9865 2.11045V3.52275C89.0578 5.44425 88.4141 7.46503 87.6647 9.45058C87.3013 10.4369 86.7238 11.3305 85.9739 12.067C76.2322 21.7813 66.4959 31.5041 56.7649 41.2354C56.2429 41.7542 56.2525 42.0072 56.7649 42.5164C61.8183 47.5294 66.8503 52.5594 71.8609 57.6066C72.0513 57.8187 72.2885 57.9835 72.5536 58.088C72.8188 58.1925 73.1046 58.2338 73.3885 58.2086C80.6611 57.9492 87.005 62.3559 89.2051 69.1964C89.5445 70.2436 89.7271 71.3453 89.9832 72.4213L89.9865 75.579ZM3.0897 13.2359C2.6862 14.3184 2.60614 16.4833 2.90717 18.0845C4.22655 25.0692 10.1285 29.5911 17.2282 29.0082C17.6425 28.9558 18.0633 29.0054 18.454 29.1528C18.8447 29.3001 19.1934 29.5408 19.4699 29.8537C23.2359 33.6679 27.0371 37.4468 30.832 41.2322C31.0497 41.45 31.2163 41.8086 31.5909 41.7638C32.5517 41.6453 33.49 41.4916 34.5211 41.3379C34.3866 41.1265 34.3162 41.0176 34.2361 40.8927C33.333 39.5861 33.4195 38.2955 34.5179 37.1554C35.1584 36.4797 35.8277 35.8136 36.5066 35.1699C36.7549 34.9085 37.053 34.6995 37.3834 34.5551C37.7137 34.4107 38.0696 34.3339 38.43 34.3291C38.7905 34.3243 39.1483 34.3917 39.4823 34.5273C39.8164 34.6629 40.1199 34.864 40.3751 35.1186C40.8074 35.5157 41.2045 35.9481 41.624 36.3548C42.2645 36.9953 42.905 38.0777 43.5871 38.113C44.3621 38.1546 44.8905 36.9248 45.6206 36.3612C46.2803 35.8552 46.117 35.5349 45.5982 35.0193C40.327 29.78 35.0655 24.5258 29.8136 19.2566C29.2884 18.7314 28.9586 18.2094 29.0547 17.4088C29.2997 15.3969 29.0771 13.3557 28.4041 11.4439C27.7312 9.53218 26.6261 7.80157 25.1748 6.38686C23.7236 4.97214 21.9654 3.9115 20.0372 3.28752C18.109 2.66355 16.0628 2.49307 14.0579 2.78938C13.8177 2.82781 13.4494 2.71892 13.379 3.04238C13.3181 3.31779 13.6448 3.46831 13.8241 3.65085C15.9345 5.7645 18.0384 7.88776 20.1744 9.9854C20.6265 10.3864 20.9434 10.9175 21.0816 11.5058C21.2198 12.0941 21.1725 12.7108 20.9462 13.2712C20.4755 14.6546 20.0015 16.0381 19.5628 17.4344C19.4264 17.9154 19.1709 18.3542 18.82 18.7102C18.469 19.0663 18.0339 19.328 17.5549 19.4712C16.1682 19.9324 14.7752 20.3775 13.3918 20.8611C12.0852 21.319 11.0028 21.0276 10.0357 20.0476C7.97975 17.9596 5.9014 15.8844 3.82305 13.8348C3.59888 13.6138 3.43236 13.316 3.0897 13.2359ZM76.9239 86.9799C76.5877 86.6212 76.3955 86.4067 76.1938 86.2049C74.1026 84.1105 72.0307 82.0128 69.9171 79.9312C69.4622 79.5329 69.1421 79.0032 69.0009 78.4153C68.8598 77.8273 68.9047 77.21 69.1293 76.6486C69.6097 75.2684 70.0644 73.8785 70.5191 72.4854C70.6633 71.9922 70.9315 71.5442 71.2982 71.1842C71.6648 70.8242 72.1177 70.5643 72.6135 70.4294C73.8945 70.0323 75.1754 69.6127 76.4372 69.1484C77.9263 68.5911 79.1304 68.8922 80.2416 70.0515C82.2687 72.1651 84.3695 74.2147 86.4446 76.2739C86.6015 76.4277 86.72 76.7031 86.9986 76.6166C87.1972 76.559 87.1555 76.3284 87.1876 76.1619C88.7728 67.8065 81.1703 59.7715 72.7256 60.9019C72.3836 60.9737 72.0288 60.9543 71.6967 60.8459C71.3645 60.7374 71.0667 60.5436 70.833 60.2839C69.9043 59.3231 68.934 58.3624 67.9829 57.4208C63.6127 53.0526 59.2467 48.6759 54.8851 44.2906C54.4432 43.8454 54.1774 43.7333 53.729 44.2682C53.211 44.8663 52.6525 45.428 52.0574 45.9495C51.7147 46.2697 51.7372 46.4651 52.0574 46.7821C53.0181 47.6948 53.9436 48.6236 54.8499 49.5811C55.9035 50.6892 55.9611 52.204 54.9684 53.312C54.2255 54.1414 53.4376 54.9293 52.6082 55.6723C52.1576 56.0787 51.5824 56.3201 50.9767 56.3567C50.371 56.3934 49.7708 56.2232 49.2745 55.874C49.0984 55.7619 48.9799 55.4993 48.634 55.6018C48.5316 56.3064 48.4835 57.0397 48.3138 57.7443C48.1441 58.4488 48.4035 58.8139 48.855 59.2623C52.5345 62.9227 56.1693 66.612 59.884 70.2404C60.2921 70.6028 60.6064 71.0586 60.7999 71.5689C60.9934 72.0793 61.0605 72.6289 60.9953 73.1707C60.675 78.1666 62.6541 82.1377 66.7275 84.9847C69.741 87.108 73.1291 87.6909 76.9239 86.9799ZM19.8766 84.6261C16.86 82.6469 16.5557 79.8223 19.0472 77.3276C24.4272 71.9452 29.8093 66.5586 35.1936 61.1678C37.4705 58.894 40.2886 59.1246 42.1268 61.7442C42.3606 62.0645 42.4759 62.1381 42.7673 61.8339C43.2374 61.3108 43.7367 60.8147 44.2628 60.3479C44.7816 59.9092 44.7752 59.6241 44.2628 59.1278C40.2246 55.1342 36.2216 51.1023 32.1962 47.096C31.5557 46.4555 30.9473 45.2866 30.2491 45.373C29.551 45.4595 28.8849 46.5387 28.2124 47.1824C28.1676 47.2209 28.1292 47.2657 28.0875 47.3041C27.8249 47.5315 27.9402 47.6404 28.1804 47.8229C30.9761 49.959 31.1266 52.489 28.6223 54.9933L14.772 68.8538C13.8817 69.744 13.0203 70.6632 12.0884 71.5086C11.6602 71.8997 11.1553 72.1974 10.6059 72.3828C10.0565 72.5683 9.47446 72.6375 8.89686 72.586C8.31926 72.5345 7.75868 72.3634 7.25072 72.0837C6.74276 71.8039 6.29853 71.4216 5.94623 70.961C5.28974 70.1091 5.28974 70.1091 4.48595 70.9194C3.25623 72.1491 3.25943 72.8409 4.50516 74.077C8.12706 77.7023 11.7906 81.2891 15.358 84.9655C17.3243 86.9927 17.9968 86.8966 19.8766 84.6261ZM40.0741 63.8354C40.0676 63.5327 39.9734 63.2384 39.8028 62.9883C39.6323 62.7381 39.3928 62.5429 39.1133 62.4263C38.3768 62.1061 37.7523 62.3303 37.1919 62.8779C31.6689 68.4097 26.1415 73.9393 20.61 79.4668C19.8606 80.2194 19.8222 81.145 20.453 81.8111C21.0839 82.4772 22.0927 82.4708 22.8612 81.7022C28.3992 76.1811 33.9297 70.6536 39.4528 65.1196C39.637 64.958 39.7869 64.7611 39.8936 64.5405C40.0003 64.3199 40.0617 64.0802 40.0741 63.8354ZM38.5689 37.0625C38.3063 37.0337 38.2103 37.2034 38.0886 37.3219C37.6915 37.7094 37.3296 38.145 36.8973 38.4908C36.3081 38.9648 36.3049 39.2883 36.8749 39.8519C40.9835 43.9031 45.0474 48.0023 49.1368 52.0727C49.6876 52.6235 50.1744 53.6067 50.8629 53.549C51.4521 53.501 51.9485 52.5883 52.5249 52.0823C52.9861 51.6884 52.9893 51.4193 52.5442 50.9774C48.0138 46.4768 43.4953 41.9656 38.9885 37.4436C38.8443 37.2995 38.6906 37.1714 38.5689 37.0625ZM45.7935 56.7291C45.9344 55.7876 46.0497 54.8396 46.2258 53.9045C46.2911 53.6244 46.2771 53.3317 46.1855 53.0591C46.0939 52.7864 45.9282 52.5447 45.7071 52.3609C43.5294 50.2408 41.2782 48.1784 39.2863 45.8918C37.7715 44.1529 36.2088 43.2658 33.9447 44.1048C33.7365 44.1817 33.4003 44.0376 33.3042 44.2746C33.1921 44.5628 33.5316 44.7037 33.7013 44.8734C37.4993 48.6801 41.3016 52.4836 45.1082 56.2839C45.2875 56.4569 45.4124 56.7227 45.7935 56.7291ZM13.3373 86.7878C13.3373 86.7621 13.3373 86.7237 13.3373 86.7077C10.073 83.4241 6.81194 80.1415 3.55405 76.86C3.19859 76.5045 3.0833 76.7319 2.96161 77.049C2.34995 78.6694 2.53889 80.2034 3.71417 81.4716C5.26412 83.1433 6.89094 84.751 8.55297 86.3138C9.18787 86.907 10.0003 87.2748 10.865 87.3604C11.7296 87.4461 12.5984 87.2448 13.3373 86.7878Z" fill="white"/>
<path d="M26.0156 22.4786C26.0156 23.4009 23.4537 25.9597 22.6211 25.9277C22.3846 25.9287 22.1527 25.8624 21.9525 25.7365C21.7524 25.6106 21.5921 25.4303 21.4906 25.2167C21.3605 25.0003 21.3042 24.7474 21.3302 24.4961C21.3562 24.2449 21.463 24.0089 21.6347 23.8236C22.3713 23.0358 23.1335 22.264 23.9276 21.5339C24.115 21.3642 24.3532 21.2613 24.6051 21.241C24.857 21.2207 25.1086 21.2843 25.3207 21.4218C25.5197 21.5206 25.6889 21.6706 25.811 21.8563C25.933 22.0419 26.0037 22.2567 26.0156 22.4786Z" fill="white"/>
<path d="M68.7322 65.0973C68.7482 66.1029 66.1895 68.6873 65.3601 68.6585C65.124 68.6614 64.892 68.5969 64.6913 68.4727C64.4905 68.3485 64.3293 68.1697 64.2264 67.9572C64.094 67.742 64.0346 67.4899 64.0572 67.2383C64.0797 66.9867 64.1828 66.7491 64.3513 66.5609C65.0847 65.7699 65.8469 64.9981 66.6411 64.2679C66.8266 64.0958 67.0638 63.9899 67.3158 63.9667C67.5677 63.9436 67.8203 64.0044 68.0341 64.1398C68.2213 64.2282 68.3834 64.3621 68.5054 64.5295C68.6273 64.6968 68.7053 64.892 68.7322 65.0973Z" fill="white"/>
<path d="M33.5988 57.7188C33.598 57.9162 33.5537 58.1109 33.469 58.2891C33.3843 58.4674 33.2613 58.6247 33.1089 58.75C27.5794 64.2818 22.0489 69.8115 16.5173 75.339C15.8416 76.0115 15.0538 76.0307 14.503 75.4479C13.9522 74.865 14.0034 74.1476 14.6503 73.4975C20.1755 67.9636 25.7039 62.4318 31.2355 56.9022C31.6966 56.4378 32.2186 56.2617 32.8367 56.4987C33.0766 56.595 33.2797 56.7652 33.4167 56.9845C33.5537 57.2038 33.6175 57.4609 33.5988 57.7188Z" fill="white"/>
</svg>
