<svg width="90" height="90" viewBox="0 0 90 90" fill="none" xmlns="http://www.w3.org/2000/svg">
<path d="M89.9376 87.645C89.6699 84.3172 89.3904 80.9923 89.1316 77.6645C88.6409 71.3003 88.177 64.9331 87.6744 58.5689C87.3056 53.9296 86.8774 49.2962 86.5027 44.6569C85.9525 37.8555 85.438 31.0511 84.8819 24.2498C84.6886 21.8944 83.2641 20.4996 80.9593 20.4669C77.1526 20.4193 73.343 20.4431 69.5334 20.4669C68.2368 20.4669 67.1305 20.9219 66.3811 22.055C65.8279 22.8937 65.6703 23.8394 65.593 24.8089C64.8237 34.4702 64.0584 44.1334 63.2971 53.7987C63.2991 53.9857 63.2472 54.1694 63.1475 54.3276C63.0478 54.4858 62.9046 54.612 62.735 54.6909C60.8317 55.7228 58.9403 56.7726 57.0429 57.8224C56.9269 57.8879 56.7931 57.986 56.6206 57.8224C56.6206 55.5979 56.5195 53.3378 56.6504 51.0895C56.7574 49.2546 55.3746 48.7668 54.0363 49.5341C49.278 52.2671 44.4245 54.8872 39.6068 57.5369C39.3362 57.6886 39.0953 57.9354 38.6819 57.8879C38.6819 55.5087 38.6819 53.1474 38.6819 50.7802C38.6819 50.1408 38.5154 49.6114 37.9414 49.2932C37.3674 48.975 36.8083 49.1267 36.2968 49.4984C36.157 49.6025 35.9994 49.6917 35.8596 49.7958C31.1232 52.9819 26.3837 56.164 21.6413 59.3421C21.3855 59.5146 21.1655 59.7763 20.7491 59.7793C20.7491 56.8708 20.7491 53.9732 20.7491 51.0865C20.7491 49.2159 19.8123 48.6717 18.1648 49.5817C12.5262 52.6845 6.88762 55.7853 1.24905 58.8841C0.759132 59.1397 0.332415 59.5014 0 59.9428L0 89.123C0.0267654 89.123 0.0684004 89.123 0.0802961 89.1528C0.508542 89.7892 1.05574 90.1788 1.86465 89.9082C2.67356 89.6375 2.83118 88.9892 2.82821 88.2219C2.82821 79.4935 2.82821 70.762 2.81036 62.0335C2.78277 61.794 2.83292 61.552 2.9534 61.3431C3.07389 61.1343 3.25833 60.9697 3.4795 60.8737C8.02366 58.3934 12.553 55.8834 17.0912 53.3824C17.338 53.2485 17.5551 53.0225 17.9477 53.0612V87.8561C17.9257 88.1786 17.9367 88.5024 17.9804 88.8227C18.0201 89.1635 18.1904 89.4757 18.4555 89.6937C18.7206 89.9116 19.0598 90.0184 19.4019 89.9914C19.7455 90.0003 20.0788 89.8736 20.3297 89.6388C20.5807 89.404 20.7292 89.0798 20.7432 88.7364C20.7675 88.4446 20.7724 88.1516 20.758 87.8591C20.758 79.9485 20.758 72.0388 20.758 64.1301C20.7287 63.8903 20.7692 63.6472 20.8747 63.4298C20.9803 63.2125 21.1463 63.0302 21.3528 62.9049C25.9356 59.8566 30.4947 56.7756 35.0686 53.7095C35.2946 53.5578 35.4879 53.2991 35.8834 53.3497V87.8621C35.8619 88.1837 35.8749 88.5068 35.9221 88.8256C36.0916 89.5751 36.5882 90.0152 37.3615 89.9795C37.7049 89.9843 38.0364 89.8533 38.2837 89.6149C38.531 89.3765 38.6741 89.0501 38.6819 88.7067C38.6968 88.4144 38.6968 88.1216 38.6819 87.8294C38.6819 79.2426 38.6819 70.6589 38.6819 62.0781C38.6536 61.8243 38.7077 61.5682 38.8363 61.3475C38.9648 61.1269 39.1609 60.9534 39.3956 60.8529C43.916 58.3875 48.4185 55.8864 52.93 53.4181C53.1887 53.2753 53.4177 52.9898 53.8222 53.1207V87.7312C53.8222 88.0286 53.8073 88.326 53.8222 88.6234C53.8345 88.9939 53.9909 89.345 54.258 89.6021C54.5251 89.8593 54.8819 90.0021 55.2526 90.0003C56.0229 90.0003 56.5671 89.4294 56.6177 88.5788C56.6177 88.3141 56.6177 88.0494 56.6177 87.7877C56.6177 79.2308 56.6177 70.6758 56.6177 62.1227C56.5883 61.8543 56.647 61.5835 56.7848 61.3513C56.9227 61.119 57.1322 60.9378 57.382 60.835C59.0414 59.9696 60.6533 59.0507 62.3127 58.1407C62.4941 58.0425 62.6577 57.8165 62.9075 57.9533C62.9182 57.986 62.9242 58.02 62.9254 58.0544C62.1323 68.0647 61.3393 78.0769 60.5462 88.0911C60.46 89.1706 60.9031 89.8933 61.7626 89.9974C62.622 90.1015 63.2495 89.5245 63.3387 88.4182C63.5172 86.4643 63.6867 84.5105 63.8056 82.5506C63.8413 81.9559 64.0168 81.7596 64.6294 81.7626C71.7193 81.7804 78.8091 81.7804 85.899 81.7626C86.5086 81.7626 86.6841 81.941 86.7198 82.5388C86.8447 84.5551 87.0172 86.5684 87.2015 88.5788C87.2789 89.471 87.8945 90.045 88.6736 90.0093C89.4528 89.9736 90 89.3431 89.997 88.448C89.9911 88.1714 89.9614 87.9067 89.9376 87.645ZM66.5595 48.062C67.193 40.2971 67.7907 32.5322 68.4063 24.7672C68.5074 23.4676 68.7394 23.2803 70.036 23.2624C73.5235 23.2624 77.0099 23.2624 80.4953 23.2624C81.7949 23.2624 81.9823 23.4736 82.0983 24.7851C82.7169 32.5173 83.3434 40.2495 83.9778 47.9817C84.0313 48.6389 83.9064 48.8442 83.2165 48.8352C80.5816 48.7966 77.9437 48.8174 75.3088 48.8174C72.6739 48.8174 69.9766 48.8174 67.3089 48.8174C66.7201 48.8412 66.503 48.7341 66.5595 48.062ZM85.6492 78.97C82.1935 78.9463 78.7407 78.97 75.288 78.97C71.8353 78.97 68.448 78.9552 65.0131 78.9849C64.3439 78.9849 64.1001 78.857 64.1625 78.1225C64.5729 73.3642 64.9387 68.6059 65.3164 63.8625C65.4026 62.8127 65.5127 61.7807 65.5603 60.7131C65.5841 60.2373 65.7268 60.0469 66.2264 60.0469C68.5362 60.0469 70.8459 60.0469 73.1557 60.0469V57.2514C71.0055 57.2514 68.8584 57.2514 66.7112 57.2514C66.0688 57.2514 65.819 57.1146 65.9023 56.4217C66.0629 55.0269 66.1699 53.6262 66.2413 52.2255C66.2681 51.6961 66.4971 51.6307 66.9491 51.6307C72.4766 51.6307 78.0071 51.6307 83.5406 51.6307C84.0313 51.6307 84.2871 51.7289 84.3228 52.279C84.412 53.766 84.5399 55.253 84.6737 56.7399C84.7362 57.418 84.2514 57.2425 83.9154 57.2455C81.56 57.2455 79.2047 57.2455 76.8493 57.2455C76.8493 57.2455 76.8493 57.2455 76.8493 57.2663V60.038C79.3355 60.038 81.8227 60.038 84.3109 60.038C84.8313 60.038 84.9384 60.2551 84.9741 60.7071C85.2328 64.032 85.5153 67.3569 85.78 70.6817C85.9822 73.1887 86.1428 75.6987 86.3748 78.2057C86.4343 78.86 86.2439 78.976 85.6492 78.97Z" fill="white"/>
<path d="M0 37.2664C0.594786 35.8924 1.70704 35.3095 3.15534 35.137C4.60364 34.9645 6.04005 34.6493 7.48241 34.4114C7.69816 34.406 7.9042 34.3205 8.06034 34.1715C8.21648 34.0225 8.31155 33.8207 8.327 33.6055C8.87167 30.9345 9.85229 28.3714 11.2296 26.019C11.3435 25.8711 11.3987 25.6862 11.3845 25.5C11.3702 25.3139 11.2874 25.1396 11.1522 25.0108C10.0905 23.732 9.05561 22.4235 8.02961 21.115C6.84004 19.6101 6.89952 18.3789 8.21102 16.9752C9.02885 16.0979 9.84371 15.2147 10.6764 14.3493C11.8481 13.1329 13.1329 12.9991 14.5425 13.9627C15.9522 14.9262 17.3618 15.9373 18.7566 16.9515C18.8907 17.0806 19.0684 17.1546 19.2545 17.159C19.4407 17.1634 19.6217 17.0979 19.7618 16.9752C22.0552 15.4491 24.5841 14.3108 27.2471 13.6058C27.4492 13.5799 27.6341 13.479 27.7652 13.3231C27.8963 13.1672 27.9641 12.9677 27.9549 12.7642C28.1155 11.1047 28.3118 9.44526 28.4932 7.78878C28.6835 6.04903 29.6828 5.13009 31.4493 5.07656C32.7073 5.0379 33.9652 4.97247 35.2232 4.95165C36.8351 4.92786 37.87 5.7903 38.1615 7.39027C38.4589 9.08839 38.7562 10.7895 39.0298 12.4965C39.0339 12.6826 39.1077 12.8604 39.2365 12.9948C39.3654 13.1291 39.54 13.2103 39.7257 13.2221C42.455 13.7795 45.0748 14.7791 47.4818 16.1812C47.6213 16.282 47.7932 16.3278 47.9645 16.3097C48.1357 16.2915 48.2942 16.2109 48.4096 16.0831C49.7281 15.0125 51.0564 13.9547 52.3947 12.9099C53.8638 11.7619 55.1069 11.8303 56.469 13.1062C57.3879 13.9686 58.3158 14.8221 59.2169 15.6994C60.2964 16.7522 60.4421 18.0102 59.5946 19.2681C58.6161 20.7254 57.602 22.1618 56.576 23.5863C56.2786 23.9907 56.2043 24.2822 56.5106 24.7431C58.0147 26.9813 59.1344 29.455 59.8236 32.062C59.859 32.2896 59.9766 32.4964 60.1542 32.6432C60.3317 32.7901 60.5569 32.8668 60.7871 32.859C61.9053 32.972 62.5001 33.5787 62.399 34.4144C62.2919 35.3065 61.5068 35.7913 60.4124 35.6277C58.0749 35.2798 57.8459 35.8686 57.1143 32.8114C56.469 30.1111 55.1991 27.6695 53.5902 25.4034C52.8586 24.3714 52.8646 23.9907 53.5902 22.9618C54.6816 21.4034 55.7612 19.8362 56.8883 18.3016C57.2273 17.8407 57.1857 17.576 56.7664 17.2191C56.0764 16.6243 55.4192 15.9998 54.7827 15.3545C54.4378 15.0035 54.188 15.0333 53.8311 15.3307C52.3441 16.5559 50.8155 17.7485 49.2988 18.947C48.3353 19.7113 47.9457 19.7469 46.9197 19.1165C44.2402 17.424 41.2475 16.2883 38.1198 15.7768C36.9451 15.5864 36.6685 15.295 36.4544 14.0846C36.1273 12.2408 35.8031 10.3969 35.5147 8.54713C35.4254 7.96721 35.2678 7.65495 34.5898 7.73525C33.7155 7.82496 32.8365 7.85973 31.9578 7.83934C31.4225 7.83934 31.2679 8.03561 31.2203 8.54118C31.033 10.4653 30.7802 12.3805 30.5958 14.3047C30.5066 15.2414 30.1021 15.7916 29.1475 16.0117C25.9889 16.6827 23.0087 18.0166 20.4041 19.9254C19.5952 20.5202 18.8874 20.4904 18.0874 19.9075C16.5529 18.7834 14.9678 17.7276 13.4332 16.6035C12.9723 16.2674 12.6808 16.208 12.2853 16.6927C11.7506 17.3532 11.166 17.9716 10.5366 18.5425C10.0311 18.9975 10.1381 19.3009 10.5366 19.7618C11.753 21.225 12.9009 22.7357 14.1053 24.2227C14.715 24.9573 14.7745 25.6442 14.254 26.4532C12.5135 29.1393 11.3583 32.162 10.8638 35.3244C10.7121 36.285 10.2422 36.8113 9.23108 36.96C7.29207 37.2426 5.36497 37.6381 3.43489 37.9444C2.95311 38.0188 2.78955 38.1883 2.81928 38.6671C2.88174 39.6039 2.9204 40.5407 2.91742 41.4774C2.91742 42.0276 3.16723 42.1466 3.65793 42.1942C5.63857 42.3934 7.61326 42.6581 9.59092 42.8544C9.95958 42.8618 10.3131 43.0023 10.5864 43.2498C10.8596 43.4974 11.0342 43.8354 11.0779 44.2016C11.3627 45.5162 11.7607 46.8038 12.2675 48.0498C12.6511 48.9985 12.3567 49.7925 11.5656 50.0989C10.7745 50.4052 10.04 50.0394 9.66527 49.055C9.31137 48.1271 8.97532 47.1874 8.71064 46.2328C8.57384 45.7421 8.41325 45.516 7.85415 45.4655C6.10548 45.3049 4.36077 45.1066 2.62003 44.8707C1.00519 44.6328 0.208175 43.6871 0.148696 42.0782C0.166605 41.5299 0.11666 40.9815 0 40.4455L0 37.2664Z" fill="white"/>
<path d="M66.9729 0C67.1871 0.252784 67.5112 0.193305 67.7818 0.273601C69.4427 0.751952 70.8699 1.82389 71.7921 3.28566C72.7144 4.74743 73.0674 6.49711 72.784 8.20209C72.2754 11.6102 69.2153 14.1262 65.6466 14.0637C62.2563 14.0013 59.2794 11.3664 58.8838 8.08016C58.4378 4.37167 60.5998 1.12117 64.109 0.214123C64.3618 0.148696 64.6116 0.0713743 64.8614 0L66.9729 0ZM65.8309 2.81334C64.9975 2.82097 64.185 3.07504 63.4957 3.54355C62.8064 4.01205 62.2712 4.67405 61.9574 5.44617C61.6436 6.21829 61.5653 7.06599 61.7323 7.88253C61.8994 8.69906 62.3043 9.44791 62.8961 10.0348C63.4879 10.6216 64.2401 11.0202 65.058 11.1804C65.8759 11.3406 66.723 11.2551 67.4924 10.9349C68.2619 10.6146 68.9193 10.0738 69.382 9.38057C69.8447 8.68736 70.092 7.87273 70.0926 7.03929C70.0902 6.48198 69.9782 5.9306 69.7627 5.41661C69.5473 4.90262 69.2327 4.4361 68.837 4.04369C68.4413 3.65127 67.9721 3.34064 67.4563 3.12954C66.9406 2.91843 66.3882 2.81099 65.8309 2.81334Z" fill="white"/>
<path d="M34.0724 20.5617C45.2632 20.52 53.9471 30.1615 52.7843 41.0401C52.6228 42.5538 52.2835 44.0431 51.7732 45.4772C51.3866 46.5746 50.652 47.0177 49.8074 46.6876C48.9628 46.3575 48.7546 45.5962 49.1175 44.5464C51.7524 36.9391 48.6803 28.8113 41.6469 25.2159C36.2136 22.4263 30.7475 22.6345 25.6294 25.9742C20.5112 29.3139 18.1945 34.2388 18.4919 40.3472C18.5808 41.6921 18.8519 43.0187 19.2979 44.2906C19.6488 45.3523 19.3246 46.1285 18.4979 46.3724C17.6711 46.6162 17.0109 46.2029 16.6273 45.1263C12.7612 34.1228 20.3506 22.0338 31.949 20.7074C32.6534 20.618 33.3623 20.5693 34.0724 20.5617Z" fill="white"/>
<path d="M34.2893 29.7568C37.8155 29.7848 41.254 30.8592 44.1687 32.8438C45.0074 33.4118 45.2185 34.1523 44.7635 34.8571C44.3085 35.5619 43.4996 35.7017 42.6134 35.1545C42.4647 35.0653 42.316 34.9612 42.1703 34.8571C37.974 32.356 33.5726 31.8624 28.9571 33.5337C27.8617 33.9444 26.817 34.4792 25.8434 35.1278C24.9512 35.7017 24.172 35.5828 23.6992 34.8512C23.2263 34.1196 23.4761 33.3434 24.3386 32.7694C27.2881 30.8108 30.7487 29.7631 34.2893 29.7568Z" fill="white"/>
<path d="M78.6456 18.3106C77.4485 18.2703 76.3147 17.7633 75.4866 16.8979C74.6585 16.0325 74.2018 14.8775 74.2142 13.6798C74.2267 12.4821 74.7072 11.3368 75.5531 10.4888C76.399 9.6408 77.5431 9.1574 78.7407 9.14198C79.3519 9.13411 79.9584 9.24849 80.5247 9.47839C81.091 9.70828 81.6057 10.0491 82.0384 10.4807C82.4711 10.9123 82.8132 11.4261 83.0445 11.9919C83.2758 12.5576 83.3917 13.1638 83.3853 13.775C83.379 14.3862 83.2506 14.9899 83.0075 15.5507C82.7645 16.1115 82.4119 16.6181 81.9703 17.0406C81.5287 17.4632 81.0071 17.7932 80.4362 18.0113C79.8652 18.2294 79.2564 18.3312 78.6456 18.3106ZM78.6872 15.5002C78.9212 15.5086 79.1545 15.47 79.3733 15.3866C79.5921 15.3033 79.7919 15.1769 79.9611 15.015C80.1302 14.8531 80.2651 14.6589 80.3579 14.4439C80.4507 14.229 80.4995 13.9976 80.5013 13.7635C80.5077 13.2907 80.3261 12.8348 79.9966 12.4958C79.6671 12.1567 79.2165 11.9624 78.7437 11.9553C78.511 11.9502 78.2796 11.9916 78.0631 12.0772C77.8466 12.1628 77.6494 12.2909 77.4832 12.4538C77.3169 12.6167 77.1849 12.8113 77.095 13.026C77.005 13.2407 76.9589 13.4712 76.9594 13.704C76.9489 13.9369 76.9859 14.1695 77.0681 14.3877C77.1503 14.6058 77.2761 14.805 77.4377 14.973C77.5993 15.141 77.7935 15.2744 78.0083 15.3651C78.2231 15.4557 78.4541 15.5017 78.6872 15.5002Z" fill="white"/>
<path d="M34.2002 35.8838C36.4602 35.8978 38.677 36.5038 40.6299 37.6414C41.5696 38.1975 41.8521 39.0005 41.3942 39.7499C40.9362 40.4993 40.1897 40.6064 39.244 40.0859C35.9281 38.257 32.6151 38.2302 29.2903 40.0651C28.2999 40.6094 27.5267 40.4726 27.0836 39.6934C26.6405 38.9142 26.92 38.1886 27.9074 37.6116C29.8235 36.509 31.9897 35.9142 34.2002 35.8838Z" fill="white"/>
<path d="M46.5806 65.7772C47.3122 65.7772 48.0438 65.7534 48.7724 65.7772C49.727 65.8188 50.3099 66.4017 50.2891 67.2374C50.2683 68.073 49.6943 68.5459 48.7635 68.5756C48.0346 68.6218 47.3036 68.6218 46.5747 68.5756C45.7598 68.4924 45.5635 68.8284 45.623 69.566C45.6632 70.2662 45.6632 70.9683 45.623 71.6685C45.5903 72.644 45.052 73.2536 44.2431 73.2774C43.4342 73.3012 42.8097 72.6648 42.7918 71.6596C42.771 70.2262 42.7651 68.7957 42.7918 67.3653C42.8156 66.3244 43.339 65.8218 44.3829 65.7831C45.1204 65.7564 45.852 65.7772 46.5806 65.7772Z" fill="white"/>
<path d="M46.6341 77.997C47.3925 77.997 48.1538 77.9702 48.9122 77.997C49.267 77.9898 49.6103 78.1228 49.8676 78.3673C50.1248 78.6117 50.2752 78.9478 50.2861 79.3025C50.3026 79.4857 50.2808 79.6703 50.2222 79.8446C50.1635 80.0189 50.0692 80.1791 49.9453 80.315C49.8215 80.4509 49.6706 80.5596 49.5025 80.6341C49.3344 80.7086 49.1526 80.7474 48.9687 80.7479C48.1232 80.8029 47.2751 80.8088 46.4289 80.7657C45.8342 80.7389 45.5873 80.9144 45.623 81.5449C45.6706 82.33 45.6557 83.124 45.623 83.9091C45.5814 84.8876 45.0282 85.4586 44.1896 85.4496C43.3509 85.4407 42.8156 84.8549 42.7978 83.8735C42.772 82.444 42.772 81.0125 42.7978 79.5791C42.8186 78.4758 43.3212 78.0089 44.4394 77.9881C45.168 77.9732 45.8996 77.9881 46.6312 77.9881L46.6341 77.997Z" fill="white"/>
<path d="M6.67941 69.4886C6.67941 68.7867 6.67941 68.0849 6.67941 67.383C6.70022 66.3927 7.20282 65.8158 8.16637 65.789C9.68902 65.7513 11.2107 65.7513 12.7314 65.789C12.9228 65.785 13.1132 65.8195 13.2911 65.8903C13.4691 65.9611 13.631 66.0668 13.7674 66.2013C13.9038 66.3357 14.0119 66.4962 14.0852 66.6731C14.1586 66.85 14.1958 67.0398 14.1945 67.2314C14.1707 68.0135 13.573 68.5518 12.6511 68.5785C11.8927 68.5994 11.1284 68.6231 10.3701 68.5785C9.70984 68.5339 9.40947 68.6945 9.47787 69.4321C9.52101 70.1918 9.52101 70.9533 9.47787 71.7131C9.45706 72.6677 8.88309 73.2892 8.06526 73.2773C7.24743 73.2654 6.6913 72.6409 6.67346 71.6893C6.67048 70.9547 6.67941 70.2201 6.67941 69.4886Z" fill="white"/>
<path d="M24.6152 69.5361C24.6152 68.8046 24.5974 68.07 24.6152 67.3414C24.642 66.4016 25.1446 65.8187 26.0576 65.7949C27.608 65.7493 29.1584 65.7493 30.7088 65.7949C30.9009 65.7951 31.0909 65.8343 31.2674 65.9099C31.444 65.9856 31.6033 66.0963 31.7359 66.2352C31.8685 66.3742 31.9715 66.5386 32.0388 66.7185C32.1061 66.8984 32.1362 67.09 32.1274 67.2819C32.0798 68.0343 31.5058 68.5577 30.6404 68.5845C29.8196 68.6083 28.9988 68.6202 28.181 68.5845C27.6248 68.5577 27.3899 68.7153 27.4256 69.3131C27.4732 70.1012 27.4494 70.8923 27.4256 71.6922C27.4256 72.6588 26.8695 73.2744 26.0487 73.2892C25.2279 73.3041 24.6242 72.6617 24.6093 71.6566C24.6033 70.9398 24.6152 70.238 24.6152 69.5361Z" fill="white"/>
<path d="M28.4158 77.9973C29.1772 77.9973 29.9385 77.9705 30.6998 77.9973C31.0658 77.9921 31.4188 78.1326 31.6812 78.3878C31.9436 78.6429 32.0939 78.9919 32.099 79.3578C32.1042 79.7238 31.9637 80.0768 31.7086 80.3392C31.4534 80.6016 31.1044 80.7519 30.7385 80.7571C29.979 80.8076 29.217 80.8076 28.4575 80.7571C27.6932 80.7035 27.3274 80.8909 27.4225 81.7504C27.4716 82.4801 27.4716 83.2124 27.4225 83.9421C27.3988 84.8581 26.8634 85.4291 26.0516 85.4291C25.2397 85.4291 24.6271 84.8641 24.6122 83.9035C24.5904 82.4403 24.5904 80.9781 24.6122 79.5169C24.6122 78.5177 25.1356 78.0062 26.1259 77.9735C26.8872 77.9497 27.6486 77.9735 28.4069 77.9735L28.4158 77.9973Z" fill="white"/>
<path d="M6.67944 81.6815C6.67944 80.9499 6.6616 80.2183 6.67944 79.4868C6.70918 78.544 7.2088 78.0176 8.1664 77.9998C9.68906 77.974 11.2107 77.974 12.7314 77.9998C12.9151 77.989 13.0992 78.0149 13.2728 78.0759C13.4464 78.137 13.6061 78.2321 13.7426 78.3555C13.8791 78.479 13.9896 78.6284 14.0677 78.7951C14.1458 78.9617 14.19 79.1423 14.1975 79.3262C14.2332 80.0964 13.6444 80.715 12.7463 80.7655C12.0166 80.8176 11.2841 80.8176 10.5545 80.7655C9.73961 80.6912 9.3649 80.9053 9.48088 81.7975C9.53147 82.4984 9.53147 83.2021 9.48088 83.903C9.45412 84.8785 8.90989 85.4614 8.06529 85.4495C7.22069 85.4376 6.69728 84.8547 6.67647 83.8733C6.66754 83.1447 6.67944 82.4131 6.67944 81.6815Z" fill="white"/>
<path d="M38.5599 43.6964C38.5778 44.6808 37.5785 45.457 36.6982 44.999C35.0537 44.1425 33.5013 44.0919 31.8597 44.9782C31.7002 45.0565 31.5266 45.1017 31.3492 45.111C31.1718 45.1203 30.9944 45.0936 30.8276 45.0325C30.6608 44.9713 30.5082 44.877 30.3789 44.7552C30.2496 44.6334 30.1463 44.4867 30.0753 44.3239C29.9192 44.0047 29.8914 43.6377 29.9976 43.2986C30.1038 42.9595 30.336 42.674 30.6463 42.5009C32.5942 41.1983 35.8566 41.1894 37.8194 42.4771C38.038 42.5987 38.2211 42.775 38.351 42.9888C38.4808 43.2025 38.5528 43.4464 38.5599 43.6964Z" fill="white"/>
<path d="M58.1968 48.4751C57.9864 48.4918 57.7751 48.4587 57.58 48.3784C57.3848 48.2981 57.2114 48.1729 57.0737 48.0129C56.9361 47.853 56.8381 47.6628 56.7878 47.4578C56.7375 47.2529 56.7363 47.039 56.7842 46.8335C57.1321 45.3465 57.4533 43.8595 57.828 42.4083C58.1254 41.2484 60.9447 40.7072 61.7774 41.5785C61.9515 41.749 62.0762 41.9634 62.1384 42.1989C62.2005 42.4345 62.1977 42.6825 62.1304 42.9167C62.063 43.1508 61.9335 43.3623 61.7557 43.5289C61.5778 43.6954 61.3582 43.8107 61.1202 43.8625C60.4035 44.0023 60.2696 44.377 60.1388 44.945C59.9395 45.7956 59.6897 46.6372 59.4429 47.4758C59.3633 47.7504 59.2009 47.9937 58.9779 48.1725C58.7549 48.3514 58.4821 48.457 58.1968 48.4751Z" fill="white"/>
<path d="M76.9563 60.0436C77.5739 60.0436 78.0745 59.4165 78.0745 58.6429C78.0745 57.8693 77.5739 57.2422 76.9563 57.2422C76.3388 57.2422 75.8381 57.8693 75.8381 58.6429C75.8381 59.4165 76.3388 60.0436 76.9563 60.0436Z" fill="white"/>
<path d="M73.1259 60.0436C73.7434 60.0436 74.2441 59.4165 74.2441 58.6429C74.2441 57.8693 73.7434 57.2422 73.1259 57.2422C72.5083 57.2422 72.0077 57.8693 72.0077 58.6429C72.0077 59.4165 72.5083 60.0436 73.1259 60.0436Z" fill="white"/>
</svg>
