<svg width="24" height="24" viewBox="0 0 24 24" fill="none" xmlns="http://www.w3.org/2000/svg">
<path d="M17.0001 21.25H7.00006C3.35006 21.25 1.25006 19.15 1.25006 15.5V8.5C1.25006 4.85 3.35006 2.75 7.00006 2.75H17.0001C20.6501 2.75 22.7501 4.85 22.7501 8.5V15.5C22.7501 19.15 20.6501 21.25 17.0001 21.25ZM7.00006 4.25C4.14006 4.25 2.75006 5.64 2.75006 8.5V15.5C2.75006 18.36 4.14006 19.75 7.00006 19.75H17.0001C19.8601 19.75 21.2501 18.36 21.2501 15.5V8.5C21.2501 5.64 19.8601 4.25 17.0001 4.25H7.00006Z" fill="white"/>
<path d="M11.9998 12.87C11.1598 12.87 10.3098 12.61 9.65984 12.08L6.52984 9.57997C6.20984 9.31997 6.14984 8.84997 6.40984 8.52997C6.66984 8.20997 7.13985 8.14997 7.45985 8.40997L10.5898 10.91C11.3498 11.52 12.6398 11.52 13.3998 10.91L16.5298 8.40997C16.8498 8.14997 17.3298 8.19997 17.5798 8.52997C17.8398 8.84997 17.7898 9.32997 17.4598 9.57997L14.3298 12.08C13.6898 12.61 12.8398 12.87 11.9998 12.87Z" fill="white"/>
</svg>
