<svg width="39" height="39" viewBox="0 0 39 39" fill="none" xmlns="http://www.w3.org/2000/svg">
<path d="M28.9854 13.506C28.3663 13.7725 27.7153 13.958 27.0487 14.0581C27.3603 14.0047 27.8189 13.4437 28.0015 13.2166C28.2788 12.8741 28.4902 12.4831 28.6248 12.0635C28.6248 12.0323 28.656 11.9878 28.6248 11.9655C28.6091 11.9569 28.5915 11.9525 28.5736 11.9525C28.5557 11.9525 28.5381 11.9569 28.5224 11.9655C27.7985 12.3575 27.0282 12.6567 26.2295 12.856C26.2016 12.8645 26.172 12.8652 26.1438 12.8582C26.1155 12.8511 26.0897 12.8365 26.0692 12.8159C26.007 12.7419 25.9401 12.672 25.8688 12.6066C25.5431 12.3148 25.1735 12.0759 24.7736 11.8987C24.2337 11.6773 23.6507 11.5814 23.0683 11.6182C22.5033 11.6539 21.9517 11.8055 21.4477 12.0635C20.9514 12.3355 20.5153 12.705 20.1654 13.1498C19.7974 13.6077 19.5318 14.139 19.3863 14.7081C19.2663 15.2495 19.2527 15.809 19.3462 16.3555C19.3462 16.449 19.3462 16.4623 19.2661 16.449C16.0916 15.9815 13.487 14.8551 11.3588 12.4375C11.2653 12.3306 11.2163 12.3306 11.1406 12.4375C10.2145 13.8444 10.6642 16.0705 11.8218 17.1703C11.9777 17.3172 12.1379 17.4597 12.3071 17.5932C11.7764 17.5555 11.2586 17.4117 10.7844 17.1703C10.6954 17.1124 10.6464 17.1435 10.642 17.2504C10.6293 17.3985 10.6293 17.5475 10.642 17.6956C10.7349 18.4056 11.0147 19.0781 11.4527 19.6445C11.8908 20.2109 12.4714 20.6507 13.1353 20.9191C13.2971 20.9884 13.4657 21.0406 13.6384 21.0749C13.147 21.1717 12.6431 21.1867 12.1468 21.1194C12.04 21.0972 11.9999 21.1551 12.04 21.2575C12.6945 23.0384 14.1148 23.5816 15.1566 23.8843C15.2991 23.9066 15.4415 23.9066 15.6018 23.9422C15.6018 23.9422 15.6018 23.9422 15.5751 23.9689C15.2679 24.5299 14.0257 24.9083 13.4558 25.1043C12.4156 25.4779 11.3066 25.6207 10.2056 25.5228C10.032 25.4961 9.99193 25.5005 9.94741 25.5228C9.90289 25.545 9.94741 25.594 9.99638 25.6385C10.219 25.7855 10.4416 25.9146 10.6731 26.0392C11.3624 26.4152 12.091 26.7138 12.8459 26.9297C16.755 28.0071 21.1538 27.2146 24.0879 24.2984C26.3942 22.0099 27.2045 18.8532 27.2045 15.6921C27.2045 15.5719 27.3514 15.5006 27.436 15.4383C28.0195 14.9837 28.5339 14.4468 28.9632 13.8444C29.0375 13.7546 29.0756 13.6403 29.07 13.5238C29.07 13.457 29.07 13.4704 28.9854 13.506Z" fill="#0C0F1C"/>
</svg>
